<svg version="1.1" id="Layer_1" xmlns="http://www.w3.org/2000/svg" x="0" y="0" viewBox="0 0 1660 200" style="enable-background:new 0 0 1660 200" xml:space="preserve"><style>.st0{fill:#b10135}.st1{fill:#00a6ca}</style><g id="_x23_b10135ff"><path class="st0" d="M651.3 83.9h57.2c-1 4.3-1.8 8.6-2.7 12.8-10.4.1-20.8 0-31.2.1-.7 3.5-1.5 7.1-2.3 10.6h27.3c-1 4.3-1.9 8.5-2.9 12.8-9.1.1-18.2-.1-27.3.1-.9 4.5-2 8.9-2.8 13.4 10.7.1 21.4 0 32.1 0-1 4.7-2 9.4-2.9 14.1-19.5.1-39 0-58.5 0v-1.7c4.8-20.7 9.2-41.5 14-62.2zm73.4 5.4c8.6-2 17.5-1.2 26.2-1 5.1.2 10.2.7 15.1 2.4 4.8 1.7 8.7 6.2 9 11.4.2 6.1-1.3 12.2-2.4 18.2-6.5 0-13 0-19.5.1 13.2 16 26.7 31.9 39.9 47.9h-27c-5.8-6.8-11.5-13.8-17.3-20.6-5.1 1.2-10.4 2-15.6 1.8-6.8-.2-13.8-.2-20.4-2.5-2.4-.9-4.8-2.2-6.5-4.2-3.1-3.1-4.2-7.8-3.8-12.1.5-7.6 2-15.2 4.1-22.6 1.4-5 3.9-9.8 7.7-13.3 3-2.7 6.6-4.7 10.5-5.5m15.7 10.1c-4.6.6-8.4 4.2-10 8.5-2.3 6.6-4 13.4-5.2 20.2-.7 3.1-.1 6.7 2.6 8.6 6.3 4.5 16.7.9 18.9-6.6 2.2-6.5 3.8-13.3 5.1-20.1.4-3.1.6-7-2.2-9.2-2.6-1.9-6.1-1.8-9.2-1.4zm334.1-6.5c1.3-3.7 6.2-5 9.4-3.1 1.4 1 2.3 2.6 3.1 4.2v3.3c-1.1 3.3-4.6 6-8.2 4.8-4-.7-5.9-5.6-4.3-9.2m4.5-2.3c-1.3.4-2.2 1.6-2.9 2.7-1.7 3.2.8 8.1 4.7 7.5 2.6.2 4.8-2.5 4.7-5 .3-3.4-3.3-6.3-6.5-5.2z"/><path class="st0" d="M784.8 90.8h23.5c-3 13-5.8 26-8.7 39-.8 2.2 0 4.5 1.4 6.2 2.1 2.2 5.2 2.3 8 2.2 3.1 0 6.4-1.6 7.7-4.5 1.1-2.8 1.6-5.8 2.2-8.8 2.5-11.4 5.2-22.7 7.6-34.1h23.8c-1.4 7.7-3.4 15.3-5 23-1.8 7.8-3.4 15.6-5.6 23.3-1.9 5.2-7.2 8-12 9.9-9.2 3.1-19.1 3.3-28.7 2.1-1 0-1.5-1-2.1-1.6-6.2-7.5-12.5-14.9-18.8-22.3-.8-.7-1.1-1.8-.8-2.8 2.6-10.6 4.8-21.2 7.5-31.6zm74.1 0H883c-4.3 18.9-8.5 37.8-12.9 56.7h-23.5c4.1-18.9 8.3-37.8 12.3-56.7zm32.5 0h51.2c-.7 3.8-1.8 7.5-2.6 11.2-9 .1-17.9 0-26.9 0-.8 3.4-1.6 6.9-2.5 10.3h22.9c-.8 3.6-1.6 7.2-2.4 10.9-7.6.2-15.1.1-22.7.1-1.9 8-3.8 16-5.5 24-7.9.2-15.8.1-23.7.1 3.9-18.8 8-37.7 12.2-56.6zm66.5 0h28.5c2 15.1 3.6 30.3 5.7 45.5 6.2-5.6 12.3-11.3 18.5-16.9-6.1-9.6-12.5-18.9-18.6-28.5 10.2-.1 20.3-.1 30.5 0 3 4.7 5.9 9.5 8.9 14.2 3.9-4.1 8.2-7.7 12-11.8 1.1-1 2.1-2.7 3.9-2.3 7.3-.2 14.7 0 22 0-9.9 8.9-19.9 17.6-29.9 26.3 6.4 10.2 13 20.2 19.4 30.3h-29.4c-3.2-5.6-6.4-11.1-9.6-16.7-3.9 4.5-8.3 8.5-12.3 13-1.2 1.3-2.4 2.6-3.9 3.6-11.7.3-23.3 0-35 .1-.3-4.1-.7-8.1-1-12.2-8.2 0-16.4-.1-24.6 0-2.7 4.1-5.4 8-8 12.1-5.6.1-11.3.1-17 0 13.1-19 26.6-37.8 39.9-56.7m-6.7 31.9h14.2c-.4-6-1.1-12-1.7-18-4.1 6.1-8.4 12-12.5 18zm126.7-30.8c1.9-.2 3.8-.2 5.4.9-.2 1.1-.5 2.1-.6 3.2.1 1.1.5 2.2.8 3.3-.5.1-1 .2-1.4.3-.4-1.4-.9-3-2.4-3.6-.1.9-.2 2.6-.2 3.5h-1.5c-.1-2.5-.1-5-.1-7.6m1.6.9c0 .7.1 2.1.2 2.8.9-.4 1.8-1.1 2.4-1.9-.9-.3-1.7-.6-2.6-.9z"/></g><path class="st1" d="M122.1 105.2c-1.3-1-2.9-1.8-4.7-2.3-1.8-.5-3.6-.8-5.2-.8-1.3 0-2.6.3-3.9.5s-2.6.8-3.6 1.3-2.1 1.3-3.1 2.3c-1 1-1.6 2.1-2.1 3.1 0-1.8-.5-3.1-1.6-4.2-.8-1-2.1-1.8-3.4-2.3-1.3-.5-2.9-.8-4.4-.8-1.6 0-3.1.3-4.9.5v6.8c1 0 2.1 0 2.6.3.8.3 1 .5 1.3 1 .3.5.5 1 .5 1.8v34.1h9.9v-25.2c0-1.8.3-3.4 1-4.7.5-1.3 1.3-2.3 2.3-3.1 1-.8 2.3-1.6 3.6-1.8 1.3-.3 2.9-.8 4.2-.8 2.6 0 4.9.5 7 1.6l4.5-7.3zm43.4 34.6c-.8-.3-1-.8-1.3-1.3-.3-.5-.5-1.3-.5-2.1v-30.2c-2.9-1.3-5.7-2.3-8.8-2.9-2.9-.8-6-1-9.1-1-3.6 0-6.8.5-9.9 1.6-2.9 1-5.5 2.6-7.8 4.7s-3.9 4.4-5.2 7.5c-1.3 2.9-2.1 6.2-2.1 9.9 0 3.1.3 6 1.3 8.6.8 2.6 2.1 4.9 3.6 7 1.6 2.1 3.6 3.6 6.2 4.7 2.6 1 5.5 1.6 8.6 1.6 3.1 0 6.2-.8 9.1-2.6 2.9-1.6 4.9-3.9 6-7 0 2.3.3 4.2 1 5.5.8 1.3 1.6 2.3 2.9 2.9 1.3.8 2.6 1 4.2 1s3.1 0 4.7-.5v-7.3c-1.3.2-2.4.2-2.9-.1zm-11.4-15c0 4.2-1 7.3-3.1 9.9-1.8 2.6-4.7 3.9-8.3 3.9-4.2 0-7-1.3-9.1-3.6-2.1-2.3-2.9-5.5-2.9-9.6 0-2.3.5-4.4 1.3-6.5.8-1.8 1.6-3.6 2.9-4.9 1.3-1.3 2.6-2.3 4.4-3.1 1.6-.8 3.6-1 5.7-1 1.3 0 2.9 0 4.4.3 1.6.3 3.1.8 4.7 1.3v13.3zm58.5-17.2c-1.3-1.6-3.1-2.9-5.5-3.9-2.1-1-4.7-1.6-7.8-1.6-1.6 0-2.9 0-4.4.3-1.6.3-2.9.8-4.2 1.3-1.3.5-2.6 1.3-3.6 2.3-1 1-2.1 2.1-2.6 3.6 0-2.1-.5-3.6-1.3-4.7-.8-1-1.8-1.8-3.1-2.3-1.3-.3-2.9-.5-4.4-.5-1.6 0-3.4.3-4.9.5v6.8c1 0 2.1 0 2.6.3.8.3 1 .5 1.3 1 .3.5.5 1 .5 1.8v34.1h9.9v-24.7c0-1.8.3-3.4.8-4.7.5-1.6 1.3-2.6 2.3-3.6 1-1 2.1-1.8 3.4-2.3 1.3-.5 2.9-.8 4.4-.8 2.9 0 5.5 1 7.3 2.9 2.1 1.8 2.9 4.7 2.9 8.1V147h9.9v-25.5c0-2.6-.3-5.2-1-7.5.1-2.8-1-4.6-2.5-6.4zm44.2 16.4c-1.6-1-3.6-1.6-5.7-2.1s-4.4-.8-6.8-1c-3.4-.5-6-1-7.8-1.6-1.8-.8-2.6-1.8-2.6-3.6 0-1 .3-1.8.8-2.6s1-1.3 2.1-1.8c.8-.5 1.8-1 2.9-1.3 1-.3 2.3-.5 3.4-.5s2.3 0 3.4.3c1.3.3 2.3.5 3.1 1 1 .5 1.6 1 2.3 1.8.5.8 1 1.6 1 2.6h8.6c0-2.1-.3-4.2-1.3-5.7-1-1.6-2.3-2.9-3.9-4.2-1.8-1-3.6-2.1-6-2.6-2.3-.5-4.7-.8-7.3-.8-2.3 0-4.7.3-7 .8s-4.2 1.3-6 2.6c-1.8 1-3.1 2.6-4.2 4.2-1 1.6-1.6 3.6-1.6 6 0 2.6.8 4.4 1.8 6 1.3 1.6 2.6 2.6 4.4 3.4 1.8.8 3.9 1.3 6.2 1.8 2.3.3 4.4.8 6.8 1 2.9.3 5.2 1 7 1.8 1.8.8 2.6 2.1 2.6 4.2 0 1.3-.3 2.3-1 3.4-.8.8-1.6 1.6-2.3 2.1-1 .5-2.1.8-3.4 1-1.3.3-2.3.3-3.6.3s-2.3-.3-3.6-.3c-1-.3-2.1-.8-3.1-1.3s-1.6-1.3-2.3-2.1c-.5-.8-1-1.8-1-2.9H223c.3 2.6.8 4.9 2.1 6.8 1.3 1.8 2.6 3.1 4.7 4.2 1.8 1 3.9 1.8 6.2 2.3 2.3.5 4.7.8 7 .8s4.7-.3 7-.8 4.4-1.3 6-2.6c1.6-1.3 3.1-2.6 4.2-4.2 1-1.8 1.6-3.9 1.6-6.2 0-2.6-.5-4.7-1.6-6.2-.5-1.9-1.8-3-3.4-4zm110.3-16.4c-1.3-1.6-3.1-2.9-5.5-3.9-2.1-1-4.7-1.6-7.8-1.6-1.6 0-2.9 0-4.4.3s-2.9.8-4.2 1.3-2.6 1.3-3.6 2.3c-1 1-2.1 2.1-2.6 3.6 0-2.1-.5-3.6-1.3-4.7-.8-1-1.8-1.8-3.1-2.3-1.3-.3-2.9-.5-4.4-.5s-3.4.3-4.7.5v6.8c1 0 2.1 0 2.6.3.8.3 1 .5 1.3 1 .3.5.5 1 .5 1.8v34.1h9.9v-24.7c0-1.8.3-3.4.8-4.7.5-1.6 1.3-2.6 2.3-3.6 1-1 2.1-1.8 3.4-2.3 1.3-.5 2.9-.8 4.4-.8 2.9 0 5.5 1 7.3 2.9 2.1 1.8 2.9 4.7 2.9 8.1V147h9.9v-25.5c0-2.6-.3-5.2-1-7.5-.1-2.8-1.2-4.6-2.7-6.4zm17.4-23.7c-1.6 0-2.9.5-4.2 1.6-1.3 1-1.8 2.3-1.8 4.4 0 2.1.8 3.4 1.8 4.4 1.3 1 2.6 1.6 4.2 1.3 1.6 0 2.9-.5 3.9-1.6 1.3-1 1.8-2.3 1.8-4.4 0-2.1-.5-3.4-1.8-4.4-1-1-2.3-1.3-3.9-1.3zm-4.9 19.3h9.9v43.7h-9.9zm55.9 4.6c-2.1-1.8-4.7-3.1-7.5-4.2-2.9-1-5.7-1.3-8.8-1.3-2.9 0-5.7.5-8.3 1.3-2.6 1-5.2 2.3-7.3 4.2s-3.9 4.2-5.2 7c-1.3 2.9-2.1 6-2.1 9.9 0 3.9.8 7.3 2.1 9.9 1.3 2.9 3.1 5.2 5.2 7.3 2.1 1.8 4.7 3.4 7.3 4.2 2.9 1 5.5 1.3 8.6 1.3 2.9 0 5.7-.5 8.6-1.3 2.9-.8 5.2-2.3 7.3-4.2 2.1-1.8 3.9-4.2 5.2-7.3 1.3-2.9 2.1-6.2 2.1-9.9 0-3.9-.8-7-2.1-9.9-1.2-2.8-3-5.1-5.1-7zm-3.9 23.2c-.8 1.8-1.8 3.1-2.9 4.4-1 1.3-2.6 2.1-4.2 2.6s-3.1 1-4.7 1-3.4-.3-4.9-.8c-1.6-.5-3.1-1.6-4.2-2.6-1.3-1.3-2.3-2.6-3.1-4.4-.8-1.8-1-3.9-1-6.2 0-2.3.3-4.2 1-6 .8-1.8 1.6-3.1 2.9-4.2 1.3-1 2.6-2.1 4.2-2.6s3.1-.8 4.7-1c1.6 0 3.4.3 4.9.8 1.6.5 3.1 1.3 4.4 2.6 1.3 1 2.3 2.6 3.1 4.4.8 1.8 1.3 3.9 1.3 6.2-.2 1.9-.7 4-1.5 5.8z"/><path class="st1" d="M43 92.8v-9.4h47.1v9.4H71.6v54.1H61.2V92.8H43zm226.8 32.7V83.4h10.4v41.9c0 8.3 6.2 13 14.3 13 8.1 0 14-4.7 14-13V83.4H319v42.1c0 14-11.2 22.1-24.4 22.1-13.6 0-24.8-8-24.8-22.1zm221.9 11v-15.6c0-2.6-.3-5.2-1-7.5-.8-2.3-1.8-4.2-3.1-6-1.3-1.6-3.1-2.9-5.5-3.9-2.1-1-4.7-1.6-7.8-1.6-1.6 0-2.9 0-4.4.3s-2.9.8-4.2 1.3c-1.3.5-2.6 1.3-3.6 2.3-1 1-2.1 2.1-2.6 3.6 0-2.1-.5-3.6-1.3-4.7-.8-1-1.8-1.8-3.1-2.3-1.3-.3-2.9-.5-4.4-.5s-3.4.3-4.7.5v6.8c1 0 2.1 0 2.6.3.8.3 1 .5 1.3 1 .3.5.5 1 .5 1.8v34.1h9.9v-24.7c0-1.8.3-3.4.8-4.7.5-1.6 1.3-2.6 2.3-3.6 1-1 2.1-1.8 3.4-2.3 1.3-.5 2.9-.8 4.4-.8 2.9 0 5.5 1 7.3 2.9 2.1 1.8 2.9 4.7 2.9 8.1v15.8c0 10.7 6.5 11.7 15.1 10.1V141c-4.1.1-4.8-1.2-4.8-4.5zm25.7-124.4c-16.9 0-31.7 9.1-39.5 22.9-2.9 5.5-3.4 10.1-1 14 2.6 4.7 8.6 5.2 11.7 5.2h5.7l-2.1 6.5c-1.3 3.9-.8 8.3 1.3 11.2 2.1 2.9 5.2 4.4 9.1 4.4 2.6 0 5.5-.5 8.1-1.6-.8-1-1.3-2.1-1.8-3.4-.3-1-.8-2.1-.8-3.4-1.6.8-3.4 1-5.2 1-1 0-2.6-.3-3.4-1.6-.8-1-1-2.6-.5-4.4l2.9-8.8h9.1l2.3-7.5h-8.8l3.9-12.2h-7.8l-3.9 12.2h-8.3c-2.6 0-4.2-.8-4.9-2.1-.8-1.6 0-4.7 2.1-8.3v-.3c7-10.1 18.5-16.9 31.7-16.9 21.1 0 38.2 17.2 38.2 38.2 0 21.1-17.2 38.2-38.2 38.2-18.7 0-34.3-13.5-37.7-31.2l-7.3 1.6c4.2 21.1 22.6 37.2 45 37.2 25.2 0 45.8-20.5 45.8-45.8.1-24.5-20.5-45.1-45.7-45.1z"/><path class="st1" d="M546.5 70.4c-1.8 0-4.2-.3-5.7-1.3-.5-.5-1.3-1-1.6-2.3 0-.5 0-1.3.3-2.1l5.7-17.4h-7.8l-4.9 15.1c-1.3 3.9-5.5 7-9.1 7-1 0-2.3-.3-2.9-1.3-.5-.8-1-1.8-.3-3.6L526 47h-7.8l-4.9 15.1c-1.3 3.6-.8 7.5 1.3 10.4 2.1 2.6 4.9 4.2 8.8 4.2 3.6 0 7.5-1.6 10.7-4.2 1 1.6 2.3 2.6 4.2 3.4 2.6.8 4.2.8 6 .8.8 0 1.8-.3 2.1-.3.3-.3.3-.5.5-.8.3-.5.5-1 .8-1.6l.8-1.6c.3-.5.5-1 .8-1.6.3-.3.3-.8.5-1-.9.6-2 .6-3.3.6zm-44.7 71.3c0-7.8 11.7-7.8 11.7 0s-11.7 7.8-11.7 0zm10.7 0c0-6.8-9.6-6.8-9.6 0-.1 6.7 9.6 6.7 9.6 0zm-2.4 2.6-1 .3-1.6-2.1h-1.3v2.1h-.8v-5.7h2.3c1 0 2.1.8 2.1 1.8 0 .8-.5 1.6-1.3 1.6l1.6 2zm-3.6-2.6h1.3c.8 0 1.3-.5 1.3-1 0-.8-.5-1-1.3-1h-1.3v2z"/><path d="M1252 75.7h-16.4c-4.9 0-8.6-4.1-8.6-8.6V50.7c0-4.9 4.1-8.6 8.6-8.6h16.4c4.9 0 8.6 4.1 8.6 8.6v16.4c0 4.5-3.7 8.6-8.6 8.6" style="fill:#0d6eb6"/><path d="M1209.8 112.2h-18.4c-5.3 0-9.8-4.5-9.8-9.8V83.9c0-5.3 4.5-9.8 9.8-9.8h18.4c5.3 0 9.8 4.5 9.8 9.8v18.4c.1 5.4-4.5 9.9-9.8 9.9" style="fill:#72217b"/><path d="M1207.8 150.3h-11.1c-3.3 0-6.1-2.9-6.1-6.1v-11.1c0-3.3 2.9-6.1 6.1-6.1h11.1c3.3 0 6.1 2.9 6.1 6.1v11.1c0 3.6-2.4 6.1-6.1 6.1" style="fill:#b02383"/><path d="M1238.1 185.9H1225c-4.1 0-7-3.3-7-7v-13.1c0-4.1 3.3-7 7-7h13.1c4.1 0 7 3.3 7 7v13.1c-.1 3.7-2.9 7-7 7m48.3-103.6h-9c-2.9 0-4.9-2-4.9-4.9v-9c0-2.9 2-4.9 4.9-4.9h9c2.9 0 4.9 2 4.9 4.9v9c0 2.8-2 4.9-4.9 4.9" style="fill:#d72b80"/><path d="M1487.5 88.4c2.9 0 5.3-2.5 5.3-5.3s-2.5-5.3-5.3-5.3c-2.9 0-5.3 2.5-5.3 5.3s2.4 5.3 5.3 5.3m-193.3 56.5c-.8 1.2-2 1.6-3.7 1.6-.8 0-1.6 0-2.5-.4-1.2-.8-2-2-2-3.7 0-.8.4-1.2.4-2l12.3-19.2-12.3-19.2c-.4-.4-.4-1.2-.4-2 0-1.2.8-2.9 2-3.7.8-.4 1.2-.4 2-.4 1.2 0 2.9.4 3.7 1.6l9.8 16 10.2-16c.8-1.2 2-1.6 3.7-1.6.8 0 1.6 0 2 .4 1.2.8 2 2 2 3.7 0 .8 0 1.6-.4 2l-12.3 19.2 12.3 19.2c.4.4.4 1.2.4 2 0 1.6-.8 2.9-2 3.7-.8.4-1.6.4-2.5.4-1.2 0-2.9-.4-3.7-1.6l-10.2-15.6-8.8 15.6zm43.8-43.8c4.5-4.1 10.6-6.6 17.6-6.6 14.7 0 26.6 11.9 26.6 26.6 0 14.3-11.9 26.2-26.6 26.2-6.6 0-13.1-2.5-17.6-6.6v22.5c0 2-2 4.1-4.5 4.1-2 0-4.1-2-4.1-4.1V99.1c0-2 2-4.1 4.1-4.1 2.5 0 4.5 2 4.5 4.1v2zm17.6 2.1c-9.8 0-17.6 7.8-17.6 17.6s7.8 17.6 17.6 17.6 17.6-7.8 17.6-17.6c0-9.9-7.7-17.6-17.6-17.6m101.6 13.1v26.6c0 2-2 4.1-4.1 4.1-2.5 0-4.5-2-4.5-4.1V99.1c0-2 2-4.1 4.5-4.1 2 0 4.1 1.6 4.1 4.1 3.7-2.9 8.2-4.1 13.1-4.5 2.9 0 4.9 2 4.9 4.1 0 2.5-2 4.5-4.9 4.5-7 .4-13.1 2.8-13.1 13.1m30.3-21.3c-2.5 0-4.5 2-4.5 4.1v43.4c0 2 2 4.1 4.5 4.1 2 0 4.1-2 4.1-4.1V99.1c.4-2.1-2-4.1-4.1-4.1m55.7 4.1c0-2 2-4.1 4.5-4.1 2 0 4.1 2 4.1 4.1v43.4c0 2-2 4.1-4.1 4.1-2.5 0-4.5-2-4.5-4.1v-2c-4.5 4.1-10.6 6.6-17.6 6.6-14.7 0-26.6-11.9-26.6-26.6 0-14.3 11.9-26.2 26.6-26.2 6.6 0 12.7 2.5 17.6 6.6v-1.8zm-17.6 39.3c9.8 0 17.6-7.8 17.6-17.6s-7.8-17.6-17.6-17.6-17.6 7.8-17.6 17.6c-.4 9.8 7.4 17.6 17.6 17.6m70.4-21.7c0-7.4-6.1-13.5-13.5-13.5-7 0-13.5 2.9-13.5 13.1v26.6c0 2-2 4.1-4.1 4.1-2.5 0-4.5-2-4.5-4.1V99.1c0-2 2-4.1 4.5-4.1 2 0 4.1 1.6 4.1 4.1 3.7-2.9 8.2-4.5 13.5-4.5 11.9 0 22.5 9.4 22.5 20.9v27c0 2-2 4.1-4.1 4.1-2.5 0-4.5-2-4.5-4.1v-25.8h-.4zm-312 2.9c0-13.5-12.3-25-26.2-25-14.7 0-26.6 11.9-26.6 26.2 0 14.7 11.9 26.6 26.6 26.6 7 0 13.5-2.9 18.4-7.4.8-.8 1.6-2 1.6-3.3 0-2.5-2-4.5-4.5-4.5-1.2 0-2.5.8-3.3 1.6-2.9 3.3-7.4 4.5-11.9 4.5-8.6 0-16-6.1-17.6-14.3h40.1c1.7-.4 3.4-2.4 3.4-4.4m-26.3-16.4c7.8 0 14.3 4.9 16.8 12.3h-33.6c2.1-7 8.6-12.3 16.8-12.3m183.1 16.4c-.4-13.5-12.3-25-26.2-25-14.7 0-26.6 11.9-26.6 26.2 0 14.7 11.9 26.6 26.6 26.6 7 0 13.5-2.9 18.4-7.4.8-.8 1.6-2 1.6-3.3 0-2.5-2-4.5-4.5-4.5-1.2 0-2.5.8-3.3 1.6-2.9 3.3-7.4 4.5-11.9 4.5-8.6 0-16-6.1-17.6-14.3h39.7c2.2-.4 3.8-2.4 3.8-4.4m-26.2-16.4c7.8 0 14.3 4.9 16.8 12.3h-33.6c2.5-7 9-12.3 16.8-12.3m199.5 43.8c-.4 0-.8-.4-.8-.8v-7.4h-1.6c-.4 0-.8-.4-.8-.8s.4-.8.8-.8h4.9c.4 0 .8.4.8.8s-.4.8-.8.8h-1.6v7.4c-.5.4-.5.8-.9.8m8.2 0c-.4 0-.8-.4-.8-.4l-2-6.1v5.7c0 .4-.4.8-.8.8s-.8-.4-.8-.8v-7.8c0-.4.4-1.2 1.2-1.2.4 0 .8.4 1.2.8l2 6.1 2-6.1c0-.4.4-.8 1.2-.8.4 0 1.2.4 1.2 1.2v7.8c0 .4-.4.8-.8.8s-.8-.4-.8-.8v-5.7c-.4.8-.8 2.5-1.2 3.7l-.8 2.5s-.4.3-.8.3" style="fill:#00458f"/></svg>