<svg xmlns="http://www.w3.org/2000/svg" width="346pt" height="346pt" viewBox="0 0 346 346"><path fill="#4ce797" d="M151.54 1.86c31.1-3.87 63.27.74 91.87 13.64 33.16 14.76 61.34 40.34 79.32 71.86 15.91 27.63 23.78 59.75 22.62 91.6-1.11 36.06-14.02 71.62-36.28 100.01-20.85 26.84-49.8 47.31-82.11 57.9-28.75 9.47-60.03 11.14-89.65 4.87-33.87-7.06-65.41-24.73-89.21-49.83-24.96-26.06-41.39-60.15-46.05-95.95-4.26-31.83.45-64.85 13.79-94.1 15.8-35.06 43.74-64.47 77.93-82.08 17.99-9.34 37.66-15.41 57.77-17.92m5.93 33.85c-24.46 2.72-48.13 12.15-67.72 27.04-24.06 18.1-41.94 44.25-49.91 73.29-8.44 30.39-6.15 63.68 6.65 92.53 12.12 27.72 33.67 51.17 60.24 65.64 24.8 13.69 53.9 19.3 82.03 16.04 26.98-2.98 52.94-14.27 73.58-31.89 23.87-20.14 40.57-48.6 46.35-79.3 5.53-28.77 1.69-59.27-11.03-85.68-12.81-26.86-34.55-49.34-60.98-63.03-24.15-12.67-52.13-17.69-79.21-14.64Z"/><path fill="#e7f8fc" d="M157.47 35.71c27.08-3.05 55.06 1.97 79.21 14.64 26.43 13.69 48.17 36.17 60.98 63.03 12.72 26.41 16.56 56.91 11.03 85.68-5.78 30.7-22.48 59.16-46.35 79.3-20.64 17.62-46.6 28.91-73.58 31.89-28.13 3.26-57.23-2.35-82.03-16.04-26.57-14.47-48.12-37.92-60.24-65.64-12.8-28.85-15.09-62.14-6.65-92.53C47.81 107 65.69 80.85 89.75 62.75c19.59-14.89 43.26-24.32 67.72-27.04m78.79 68.56c-4.52 1.88-7.14 6.23-10.3 9.71-25.74 30.24-51.49 60.46-77.24 90.69-10.46-10.01-20.91-20.03-31.35-30.06-2.73-2.7-5.6-5.55-9.44-6.55-7.08-2.31-15.47 1.54-18.46 8.33-2.84 5.87-1.38 13.31 3.32 17.78 15.31 14.71 30.63 29.4 45.95 44.1 4.5 4.53 11.84 5.99 17.63 3.19 3.8-1.65 6.24-5.12 8.87-8.15 28.68-33.69 57.37-67.38 86.08-101.05 2.19-2.6 4.68-5.12 5.84-8.4 2.13-5.56.6-12.24-3.64-16.4-4.39-4.46-11.56-5.8-17.26-3.19Z"/><path fill="#4ce797" d="M236.26 104.27c5.7-2.61 12.87-1.27 17.26 3.19 4.24 4.16 5.77 10.84 3.64 16.4-1.16 3.28-3.65 5.8-5.84 8.4-28.71 33.67-57.4 67.36-86.08 101.05-2.63 3.03-5.07 6.5-8.87 8.15-5.79 2.8-13.13 1.34-17.63-3.19-15.32-14.7-30.64-29.39-45.95-44.1-4.7-4.47-6.16-11.91-3.32-17.78 2.99-6.79 11.38-10.64 18.46-8.33 3.84 1 6.71 3.85 9.44 6.55 10.44 10.03 20.89 20.05 31.35 30.06 25.75-30.23 51.5-60.45 77.24-90.69 3.16-3.48 5.78-7.83 10.3-9.71Z"/></svg>