<svg xmlns="http://www.w3.org/2000/svg" viewBox="0 0 120 50">
  <g fill="none" fill-rule="evenodd">
    <rect x=".5" y=".5" width="119" height="49" rx="2" fill="#FFF" stroke="#000" stroke-opacity=".1"/>
    <path d="M111.83 14.092v.677h-.4v-1.681c.158-.031.38-.052.664-.052.327 0 .474.052.6.123a.461.461 0 01.17.37c0 .184-.148.328-.359.389v.02c.169.062.264.185.316.41.053.257.085.36.127.421h-.432c-.053-.062-.085-.215-.137-.41-.032-.185-.137-.267-.359-.267h-.19zm.011-.758v.481h.19c.221 0 .4-.071.4-.246 0-.153-.115-.256-.368-.256-.106 0-.18.01-.222.02zm.264-1.128c1.001 0 1.77.748 1.77 1.681 0 .954-.769 1.702-1.77 1.702-.991 0-1.782-.748-1.782-1.702 0-.933.79-1.681 1.782-1.681zm0 .338c-.77 0-1.339.605-1.339 1.343 0 .749.57 1.343 1.35 1.343.758 0 1.317-.594 1.317-1.332 0-.749-.559-1.354-1.328-1.354zM107.9 17.297c0-.623-.273-1.666-1.466-1.666-1.092 0-1.535.976-1.604 1.666h3.07zm-3.052 1.751c.085 1.06 1.142 1.566 2.353 1.566.886 0 1.603-.118 2.302-.337l.34 1.734c-.852.337-1.892.505-3.018.505-2.83 0-4.45-1.616-4.45-4.192 0-2.087 1.313-4.394 4.212-4.394 2.694 0 3.717 2.071 3.717 4.108 0 .438-.05.825-.085 1.01h-5.371zM100.124 11.759v2.356h1.859v1.886h-1.86v2.98c0 .993.24 1.448 1.024 1.448.324 0 .58-.034.767-.068l.017 1.936c-.34.135-.955.22-1.688.22-.836 0-1.535-.287-1.944-.708-.477-.488-.716-1.28-.716-2.441v-3.367h-1.109v-1.886h1.109v-1.784l2.54-.572zM92.79 22.348h2.593v-8.233h-2.592v8.233zm2.678-10.522c0 .707-.545 1.28-1.398 1.28-.819 0-1.364-.573-1.347-1.28-.017-.74.528-1.296 1.364-1.296.836 0 1.364.555 1.381 1.296zM84.18 19.705c.698.353 1.773.707 2.88.707 1.195 0 1.826-.488 1.826-1.23 0-.706-.546-1.11-1.928-1.599-1.91-.656-3.154-1.7-3.154-3.35 0-1.936 1.637-3.417 4.348-3.417 1.297 0 2.251.27 2.934.572l-.58 2.07a5.52 5.52 0 00-2.405-.538c-1.125 0-1.671.505-1.671 1.094 0 .724.648 1.044 2.132 1.6 2.029.74 2.984 1.784 2.984 3.384 0 1.902-1.484 3.518-4.639 3.518-1.312 0-2.609-.337-3.256-.69l.528-2.121z" fill="#80C600"/>
    <path d="M79.438 17.6c0-.134-.017-.32-.034-.454-.154-.69-.717-1.263-1.518-1.263-1.177 0-1.79 1.044-1.79 2.34 0 1.398.699 2.273 1.773 2.273.75 0 1.347-.505 1.5-1.229.052-.185.069-.37.069-.59V17.6zm2.592-7.205v9.495c0 .926.034 1.902.068 2.458h-2.302l-.12-1.212h-.034c-.528.926-1.534 1.397-2.609 1.397-1.978 0-3.564-1.667-3.564-4.226-.017-2.777 1.74-4.377 3.735-4.377 1.023 0 1.825.354 2.2.926h.034v-4.461h2.592zM70.433 17.297c0-.623-.272-1.666-1.466-1.666-1.091 0-1.535.976-1.603 1.666h3.07zm-3.052 1.751c.085 1.06 1.142 1.566 2.353 1.566.887 0 1.603-.118 2.303-.337l.34 1.734c-.852.337-1.892.505-3.018.505-2.83 0-4.45-1.616-4.45-4.192 0-2.087 1.312-4.394 4.211-4.394 2.695 0 3.718 2.071 3.718 4.108 0 .438-.051.825-.085 1.01H67.38zM62.691 11.759v2.356h1.859v1.886h-1.859v2.98c0 .993.24 1.448 1.023 1.448.325 0 .58-.034.768-.068l.017 1.936c-.341.135-.955.22-1.688.22-.836 0-1.535-.287-1.944-.708-.478-.488-.716-1.28-.716-2.441v-3.367h-1.109v-1.886h1.109v-1.784l2.54-.572zM52.613 20.109c.477.286 1.466.623 2.234.623.784 0 1.108-.27 1.108-.69 0-.421-.256-.624-1.228-.943-1.722-.573-2.387-1.499-2.37-2.475 0-1.532 1.33-2.694 3.393-2.694.972 0 1.842.22 2.354.472l-.46 1.767c-.376-.202-1.092-.471-1.808-.471-.631 0-.99.252-.99.673 0 .388.325.59 1.348.943 1.586.539 2.25 1.33 2.268 2.542 0 1.532-1.228 2.66-3.615 2.66-1.092 0-2.064-.236-2.695-.572l.46-1.835zM51.18 19.705c0 1.077.034 1.953.068 2.643h-2.25l-.12-1.162h-.051c-.324.505-1.109 1.347-2.61 1.347-1.688 0-2.932-1.044-2.932-3.586v-4.832h2.609v4.428c0 1.195.392 1.92 1.296 1.92.716 0 1.125-.489 1.296-.893.068-.151.085-.354.085-.556v-4.899h2.609v5.59zM37.06 16.826a51.31 51.31 0 00-.068-2.71h2.234l.085 1.515h.068c.427-1.196 1.45-1.7 2.251-1.7.239 0 .358 0 .546.033v2.407a3.757 3.757 0 00-.7-.067c-.954 0-1.602.505-1.773 1.296-.034.169-.051.37-.051.573v4.175H37.06v-5.522zM31.415 13.156H28.33V11h8.833v2.155h-3.138v9.192h-2.609z" fill="#323835"/>
    <path d="M19.933 25.087H7v-12.58C7 10.019 9.075 8 11.634 8h12.933v12.58c0 2.49-2.075 4.507-4.634 4.507" fill="#80C600"/>
    <path d="M20.974 11.507a.373.373 0 00-.522 0l-6.518 6.435a.373.373 0 01-.521 0L11.039 15.6a.373.373 0 00-.521 0l-1.564 1.545a.362.362 0 000 .515l4.459 4.402a.373.373 0 00.52 0l8.605-8.495a.362.362 0 000-.515l-1.564-1.544z" fill="#FEFEFE"/>
    <path d="M1 32h118v16a1 1 0 01-1 1H2a1 1 0 01-1-1V32z" fill="#F2F3F3" fill-rule="nonzero"/>
    <path d="M10.757 37.76c-.67 0-1.198.237-1.582.713-.384.475-.576 1.13-.576 1.967 0 .876.185 1.539.554 1.988.37.449.904.674 1.604.674.303 0 .596-.03.88-.09.282-.061.577-.138.883-.233v1.001c-.56.212-1.195.318-1.904.318-1.045 0-1.848-.317-2.408-.95-.56-.633-.84-1.539-.84-2.717 0-.743.136-1.392.408-1.949a2.91 2.91 0 011.18-1.279c.514-.296 1.118-.444 1.811-.444.73 0 1.403.153 2.021.459l-.42.971a6.27 6.27 0 00-.764-.3 2.753 2.753 0 00-.847-.13zm8.51 6.24h-4.039v-7.139h4.038v.987h-2.871v1.943h2.69v.977h-2.69v2.24h2.871V44zm3.879-3.818h.81c.544 0 .938-.101 1.182-.303.244-.202.366-.501.366-.899 0-.403-.131-.693-.395-.869-.264-.175-.66-.263-1.191-.263h-.772v2.334zm0 .966V44h-1.167v-7.139h2.017c.92 0 1.603.173 2.046.518.442.345.664.866.664 1.562 0 .89-.463 1.522-1.387 1.9L27.335 44h-1.328l-1.709-2.852h-1.152zM32.006 44H30.84v-6.138h-2.1v-1h5.367v1h-2.1V44zm4.364 0v-7.139h1.167V44H36.37zm5.379 0h-1.157v-7.139h4.028v.987h-2.871v2.231h2.69v.991h-2.69V44zm5.335 0v-7.139h1.167V44h-1.167zm8.26 0h-4.038v-7.139h4.038v.987h-2.871v1.943h2.69v.977h-2.69v2.24h2.87V44zm8.518-3.638c0 1.179-.327 2.08-.981 2.703-.654.623-1.597.935-2.827.935h-1.997v-7.139h2.207c1.136 0 2.02.306 2.651.918.632.612.947 1.473.947 2.583zm-1.23.04c0-1.71-.8-2.564-2.398-2.564h-1.01v5.18h.83c1.718 0 2.578-.872 2.578-2.617zm11.817 1.66c0 .634-.23 1.132-.688 1.494-.46.361-1.092.542-1.9.542-.807 0-1.468-.126-1.982-.376v-1.104c.326.153.671.274 1.038.361a4.4 4.4 0 001.023.132c.462 0 .803-.088 1.023-.263a.86.86 0 00.33-.708c0-.267-.102-.494-.304-.68-.201-.185-.618-.404-1.25-.658-.65-.264-1.11-.565-1.377-.904-.266-.338-.4-.745-.4-1.22 0-.596.212-1.065.635-1.407.423-.341.991-.512 1.704-.512.684 0 1.364.15 2.041.449l-.371.952c-.635-.267-1.201-.4-1.7-.4-.377 0-.663.082-.859.246a.81.81 0 00-.293.652c0 .186.04.344.117.476.079.132.207.257.386.374.18.117.502.272.967.464.524.218.908.421 1.152.61.245.189.424.402.537.64.114.237.171.517.171.84zM81.04 44h-4.038v-7.139h4.038v.987h-2.87v1.943h2.69v.977h-2.69v2.24h2.87V44zm5.75-6.24c-.67 0-1.198.237-1.582.713-.384.475-.576 1.13-.576 1.967 0 .876.185 1.539.554 1.988.37.449.905.674 1.604.674.303 0 .596-.03.88-.09.282-.061.577-.138.883-.233v1.001c-.56.212-1.195.318-1.904.318-1.045 0-1.848-.317-2.407-.95-.56-.633-.84-1.539-.84-2.717 0-.743.136-1.392.407-1.949a2.91 2.91 0 011.18-1.279c.514-.296 1.118-.444 1.811-.444.73 0 1.403.153 2.022.459l-.42.971a6.27 6.27 0 00-.764-.3 2.753 2.753 0 00-.848-.13zm10.067-.899v4.62c0 .527-.113.988-.34 1.384-.226.395-.553.7-.98.913-.429.213-.94.32-1.537.32-.885 0-1.573-.235-2.065-.703-.492-.47-.737-1.114-.737-1.934v-4.6h1.172v4.517c0 .59.136 1.024.41 1.304.273.28.693.42 1.26.42 1.1 0 1.65-.578 1.65-1.734v-4.507h1.167zm4.163 3.32h.81c.544 0 .938-.1 1.182-.302.244-.202.366-.501.366-.899 0-.403-.131-.693-.395-.869-.264-.175-.66-.263-1.191-.263h-.772v2.334zm0 .967V44h-1.167v-7.139h2.017c.92 0 1.603.173 2.046.518.442.345.664.866.664 1.562 0 .89-.463 1.522-1.387 1.9L105.208 44h-1.328l-1.709-2.852h-1.152zM111.452 44h-4.038v-7.139h4.038v.987h-2.871v1.943h2.69v.977h-2.69v2.24h2.87V44z" fill="#323835" fill-rule="nonzero" opacity=".6"/>
  </g>
</svg>