<?xml version="1.0" encoding="UTF-8" ?>
<!DOCTYPE svg PUBLIC "-//W3C//DTD SVG 1.1//EN" "http://www.w3.org/Graphics/SVG/1.1/DTD/svg11.dtd">
<svg width="640pt" height="146pt" viewBox="0 0 640 146" version="1.1" xmlns="http://www.w3.org/2000/svg">
<g id="#25a2d9ff">
<path fill="#25a2d9" opacity="1.00" d=" M 119.01 0.00 L 121.16 0.00 C 122.42 0.68 123.59 1.66 123.86 3.15 C 126.82 13.03 129.71 22.95 132.61 32.85 C 143.57 35.18 154.64 37.05 165.58 39.50 C 168.90 40.38 168.80 45.52 165.63 46.58 C 140.06 59.78 114.51 73.04 88.89 86.15 C 85.79 88.04 81.92 84.21 83.77 81.08 C 94.11 55.98 104.69 30.97 115.07 5.88 C 116.03 3.72 116.67 1.09 119.01 0.00 M 94.38 74.69 C 94.92 74.83 96.01 75.12 96.55 75.27 L 94.65 74.52 C 114.16 64.78 133.44 54.57 152.85 44.63 C 144.88 43.01 136.87 41.55 128.92 39.86 C 127.39 39.65 126.23 38.38 125.90 36.91 C 123.69 29.69 121.63 22.41 119.48 15.17 C 111.02 34.97 103.19 55.05 94.38 74.69 Z" />
<path fill="#25a2d9" opacity="1.00" d=" M 165.53 11.75 C 167.53 11.64 169.63 10.93 171.59 11.50 C 174.21 12.40 174.25 16.58 171.65 17.52 C 167.81 18.15 163.93 18.62 160.07 19.09 C 157.21 19.03 156.04 14.93 158.32 13.29 C 160.50 12.08 163.13 12.22 165.53 11.75 Z" />
<path fill="#25a2d9" opacity="1.00" d=" M 183.33 11.50 C 187.24 10.06 191.78 11.26 195.91 11.29 C 199.48 11.55 199.49 17.35 195.94 17.69 C 192.15 17.62 188.34 17.53 184.56 17.23 C 181.96 16.82 181.17 12.97 183.33 11.50 Z" />
<path fill="#25a2d9" opacity="1.00" d=" M 208.52 13.67 C 209.85 12.74 211.44 13.42 212.88 13.65 C 215.89 14.39 218.99 14.91 221.86 16.12 C 224.50 17.71 223.14 22.27 220.03 22.06 C 216.42 21.40 212.89 20.33 209.31 19.52 C 206.65 18.97 206.16 14.94 208.52 13.67 Z" />
<path fill="#25a2d9" opacity="1.00" d=" M 143.44 17.68 C 145.58 16.10 149.14 17.05 149.27 19.99 C 149.21 23.35 145.20 23.92 142.86 25.23 C 140.52 26.56 137.56 23.87 138.42 21.39 C 139.12 19.23 141.65 18.67 143.44 17.68 Z" />
<path fill="#25a2d9" opacity="1.00" d=" M 232.25 21.11 C 232.68 20.95 233.55 20.64 233.98 20.49 C 238.05 21.49 241.97 23.34 245.63 25.39 C 247.96 27.38 245.99 31.53 242.99 31.06 C 239.63 29.81 236.43 28.15 233.09 26.84 C 230.64 26.13 230.13 22.51 232.25 21.11 Z" />
<path fill="#25a2d9" opacity="1.00" d=" M 254.23 33.22 C 256.66 31.77 258.73 34.21 260.42 35.63 C 262.47 37.68 265.09 39.33 266.47 41.93 C 267.45 44.78 263.60 47.40 261.36 45.40 C 258.78 43.06 256.22 40.70 253.62 38.40 C 251.96 37.06 252.40 34.19 254.23 33.22 Z" />
<path fill="#25a2d9" opacity="1.00" d=" M 271.31 51.37 C 272.72 50.38 274.85 50.75 275.80 52.20 C 278.02 55.04 280.23 57.94 282.06 61.05 C 283.60 64.20 278.78 67.14 276.66 64.43 C 274.61 61.77 272.73 58.98 270.72 56.29 C 269.37 54.86 269.68 52.44 271.31 51.37 Z" />
<path fill="#25a2d9" opacity="1.00" d=" M 206.46 71.46 C 214.66 66.41 224.89 67.98 234.00 68.81 C 234.00 72.08 234.00 75.35 234.00 78.62 C 229.11 78.36 223.65 76.51 219.10 79.04 C 216.28 82.81 218.06 88.05 217.57 92.43 C 222.38 92.44 227.19 92.44 232.01 92.43 C 232.08 95.70 232.07 98.97 232.05 102.24 C 227.22 102.26 222.39 102.24 217.57 102.25 C 217.56 116.48 217.56 130.70 217.57 144.93 C 214.13 144.95 210.69 144.93 207.25 144.96 C 205.48 142.18 203.58 139.48 201.78 136.73 C 201.42 125.25 201.72 113.76 201.63 102.27 C 200.73 102.26 198.94 102.22 198.05 102.20 C 200.59 98.95 203.16 95.72 205.74 92.50 C 204.37 92.41 203.00 92.32 201.63 92.25 C 201.86 85.26 200.27 76.42 206.46 71.46 Z" />
<path fill="#25a2d9" opacity="1.00" d=" M 285.24 72.14 C 289.19 70.25 290.81 75.35 292.15 78.02 C 293.91 81.21 288.82 84.28 286.73 81.39 C 285.21 78.77 281.60 74.55 285.24 72.14 Z" />
<path fill="#25a2d9" opacity="1.00" d=" M 263.54 91.79 C 266.57 91.09 269.72 91.35 272.81 91.31 C 272.82 95.71 272.82 100.11 272.81 104.50 C 267.70 104.61 262.19 103.99 257.54 106.52 C 254.92 107.97 254.08 111.15 254.19 113.95 C 254.17 124.28 254.20 134.61 254.18 144.94 C 248.87 144.94 243.56 144.95 238.25 144.93 C 238.28 127.43 238.20 109.92 238.28 92.42 C 243.33 92.46 248.39 92.42 253.44 92.44 C 253.45 95.08 253.46 97.72 253.33 100.35 C 254.99 95.97 259.15 93.02 263.54 91.79 Z" />
<path fill="#25a2d9" opacity="1.00" d=" M 495.50 99.46 C 498.87 93.78 505.92 92.28 512.00 91.60 C 520.76 91.20 530.16 90.67 538.18 94.85 C 544.75 98.66 546.38 107.00 546.01 114.02 C 545.51 122.22 547.69 131.43 542.70 138.66 C 538.51 144.74 530.38 145.48 523.64 146.00 L 514.49 146.00 C 507.76 145.43 499.61 144.65 495.56 138.44 C 491.76 133.05 492.44 126.19 492.44 119.96 C 492.56 113.08 491.50 105.54 495.50 99.46 M 513.46 101.68 C 510.62 102.02 508.54 104.56 508.48 107.37 C 508.25 114.61 508.40 121.85 508.40 129.09 C 508.30 131.75 509.53 134.86 512.45 135.38 C 517.04 136.38 521.96 136.43 526.51 135.20 C 529.18 134.46 530.06 131.44 530.03 128.97 C 530.09 122.32 530.07 115.66 530.04 109.00 C 530.06 106.45 529.37 103.33 526.73 102.27 C 522.51 100.76 517.83 100.99 513.46 101.68 Z" />
<path fill="#25a2d9" opacity="1.00" d=" M 282.31 97.30 C 288.98 91.44 298.55 91.24 306.96 91.42 C 313.69 91.83 321.84 93.06 325.61 99.41 C 329.42 106.63 327.55 115.13 328.00 122.94 C 316.60 122.94 305.20 122.93 293.80 122.95 C 293.90 125.81 293.44 128.86 294.65 131.55 C 295.82 134.01 298.57 135.09 301.11 135.52 C 309.55 136.88 318.15 135.64 326.43 133.85 C 326.44 137.22 326.44 140.60 326.44 143.97 C 321.18 145.02 315.85 145.62 310.51 146.00 L 301.68 146.00 C 294.28 145.37 285.75 144.35 280.71 138.23 C 276.40 132.77 278.09 125.41 277.75 119.00 C 277.92 111.68 276.52 102.95 282.31 97.30 M 296.29 102.25 C 292.24 104.62 294.31 110.07 293.82 113.87 C 300.15 113.88 306.48 113.88 312.81 113.87 C 312.33 109.99 314.48 104.17 309.95 102.09 C 305.58 100.75 300.62 100.76 296.29 102.25 Z" />
<path fill="#25a2d9" opacity="1.00" d=" M 342.39 95.28 C 349.78 91.12 358.67 91.06 366.91 91.60 C 373.44 92.17 381.27 94.34 383.87 101.10 C 386.44 108.07 385.11 115.68 385.43 122.94 C 374.03 122.95 362.63 122.93 351.24 122.95 C 351.32 125.66 350.92 128.51 351.87 131.12 C 352.88 133.69 355.58 135.01 358.15 135.45 C 366.71 136.91 375.46 135.67 383.87 133.83 C 383.88 137.21 383.88 140.59 383.88 143.97 C 378.78 145.00 373.60 145.54 368.43 146.00 L 358.76 146.00 C 352.41 145.39 345.61 144.58 340.42 140.53 C 336.88 137.84 335.13 133.36 335.20 129.00 C 335.19 122.30 335.11 115.60 335.24 108.91 C 335.30 103.60 337.57 97.96 342.39 95.28 M 353.42 102.42 C 349.73 104.97 351.75 110.13 351.25 113.87 C 357.58 113.88 363.91 113.88 370.24 113.87 C 369.81 109.91 371.94 103.69 366.98 101.94 C 362.60 100.83 357.64 100.68 353.42 102.42 Z" />
<path fill="#25a2d9" opacity="1.00" d=" M 398.41 93.54 C 410.33 90.01 422.92 91.66 435.12 92.32 C 435.13 95.70 435.13 99.08 435.12 102.46 C 426.74 102.08 418.34 100.63 409.96 101.48 C 404.22 101.28 404.21 111.88 409.98 111.70 C 417.22 112.15 424.97 110.94 431.71 114.30 C 435.38 115.99 437.77 119.88 437.71 123.92 C 437.81 129.70 438.57 136.53 433.99 140.96 C 429.35 145.25 422.56 145.43 416.61 146.00 L 407.56 146.00 C 402.11 145.62 396.67 145.11 391.26 144.42 C 391.24 140.89 391.24 137.36 391.25 133.83 C 400.31 134.85 409.53 137.16 418.63 135.44 C 422.76 134.85 422.24 129.94 421.84 126.90 C 421.40 123.71 417.65 123.43 415.12 123.40 C 407.93 123.22 399.66 124.33 393.77 119.28 C 389.08 115.21 390.12 108.42 390.22 102.89 C 390.24 98.23 394.13 94.67 398.41 93.54 Z" />
<path fill="#25a2d9" opacity="1.00" d=" M 444.71 100.69 C 446.76 95.78 452.10 93.41 456.99 92.32 C 466.92 90.52 477.14 91.32 486.99 93.27 C 487.00 96.76 487.00 100.26 487.00 103.76 C 479.92 102.36 472.64 100.39 465.39 101.56 C 462.15 102.00 458.76 104.40 458.93 108.00 C 458.86 115.02 458.76 122.06 458.98 129.08 C 459.16 132.70 462.58 135.10 465.90 135.63 C 473.23 136.93 480.61 135.02 487.81 133.72 C 487.82 137.22 487.82 140.71 487.79 144.21 C 483.34 144.99 478.85 145.57 474.34 146.00 L 463.65 146.00 C 458.13 145.57 452.15 145.11 447.86 141.18 C 441.93 136.74 442.68 128.56 442.68 122.00 C 443.02 114.91 441.56 107.35 444.71 100.69 Z" />
<path fill="#25a2d9" opacity="1.00" d=" M 551.94 92.41 C 556.97 92.46 562.00 92.43 567.04 92.44 C 567.05 95.06 567.10 97.69 567.07 100.31 C 569.87 92.58 579.07 90.45 586.44 91.32 C 586.44 95.71 586.44 100.10 586.44 104.49 C 581.63 104.58 576.57 104.11 572.04 106.05 C 569.29 107.14 567.76 110.10 567.85 112.96 C 567.76 123.62 567.84 134.28 567.81 144.93 C 562.50 144.95 557.19 144.94 551.88 144.94 C 551.92 127.43 551.79 109.92 551.94 92.41 Z" />
<path fill="#25a2d9" opacity="1.00" d=" M 599.44 94.49 C 607.39 90.89 616.51 90.91 625.03 91.92 C 631.30 92.67 638.13 95.79 640.00 102.36 L 640.00 122.94 C 628.95 122.94 617.91 122.93 606.87 122.95 C 606.96 125.80 606.47 128.85 607.69 131.54 C 608.86 133.99 611.59 135.10 614.13 135.52 C 622.58 136.87 631.20 135.65 639.49 133.84 C 639.50 137.22 639.50 140.59 639.50 143.97 C 634.22 145.02 628.86 145.62 623.50 146.00 L 614.66 146.00 C 608.31 145.45 601.54 144.65 596.28 140.71 C 592.61 138.04 590.74 133.48 590.83 129.01 C 590.84 122.02 590.68 115.02 590.92 108.04 C 591.07 102.42 594.15 96.79 599.44 94.49 M 607.07 104.96 C 606.68 107.92 606.92 110.90 606.89 113.87 C 613.21 113.88 619.54 113.88 625.87 113.87 C 625.75 110.78 626.21 107.62 625.53 104.58 C 623.91 101.02 619.31 101.26 616.03 101.17 C 612.85 101.30 608.24 101.25 607.07 104.96 Z" />
</g>
<g id="#2cc990ff">
<path fill="#2cc990" opacity="1.00" d=" M 54.06 69.00 C 59.37 69.00 64.69 69.00 70.00 69.00 C 70.00 94.31 70.00 119.63 70.00 144.94 C 64.69 144.94 59.37 144.94 54.06 144.94 C 54.05 119.63 54.06 94.32 54.06 69.00 Z" />
<path fill="#2cc990" opacity="1.00" d=" M 153.69 69.00 C 159.00 69.00 164.32 68.99 169.63 69.01 C 169.55 84.52 169.78 100.04 169.51 115.55 C 169.95 115.29 170.82 114.75 171.26 114.49 C 176.20 106.85 182.14 99.86 187.48 92.48 C 192.19 92.31 196.91 92.00 201.63 92.25 C 203.00 92.32 204.37 92.41 205.74 92.50 C 203.16 95.72 200.59 98.95 198.05 102.20 C 194.48 106.53 191.01 110.94 187.49 115.32 C 192.25 122.46 197.05 129.57 201.78 136.73 C 203.58 139.48 205.48 142.18 207.25 144.96 C 201.25 145.02 195.25 144.90 189.25 144.94 C 183.87 136.64 178.54 128.31 173.14 120.03 C 172.36 118.51 170.73 117.15 171.06 115.28 C 170.52 115.95 170.03 116.67 169.60 117.42 C 169.65 126.59 169.62 135.76 169.63 144.93 C 164.32 144.95 159.00 144.94 153.69 144.94 C 153.68 119.63 153.69 94.32 153.69 69.00 Z" />
<path fill="#2cc990" opacity="1.00" d=" M 16.73 91.91 C 25.92 90.71 35.25 91.45 44.31 93.28 C 44.32 96.78 44.32 100.27 44.31 103.76 C 36.25 102.33 27.53 99.41 19.56 102.60 C 14.08 105.67 16.74 112.93 16.13 117.99 C 16.69 123.52 13.98 131.63 20.30 134.68 C 28.28 137.76 36.97 135.07 45.05 133.72 C 45.07 137.21 45.06 140.70 45.06 144.19 C 40.55 145.02 36.01 145.59 31.45 146.00 L 20.70 146.00 C 15.41 145.52 9.67 145.14 5.49 141.46 C 1.84 139.03 0.45 134.61 0.00 130.46 L 0.00 108.31 C 0.48 104.14 1.62 99.70 4.79 96.74 C 8.12 93.90 12.44 92.45 16.73 91.91 Z" />
<path fill="#2cc990" opacity="1.00" d=" M 117.93 92.34 C 127.88 90.51 138.12 91.31 147.99 93.27 C 148.00 96.76 148.00 100.26 148.00 103.76 C 140.93 102.36 133.68 100.41 126.43 101.55 C 123.23 101.99 119.84 104.32 119.95 107.87 C 119.79 114.60 119.87 121.34 119.91 128.07 C 119.66 131.78 122.72 134.78 126.18 135.46 C 133.72 137.10 141.38 135.05 148.81 133.72 C 148.82 137.21 148.82 140.70 148.81 144.19 C 144.35 145.00 139.85 145.57 135.34 146.00 L 124.58 146.00 C 117.11 145.84 108.13 143.66 105.00 136.04 C 103.01 130.60 103.87 124.69 103.69 119.02 C 103.84 112.91 102.92 106.40 105.70 100.70 C 107.75 95.81 113.05 93.42 117.93 92.34 Z" />
<path fill="#2cc990" opacity="1.00" d=" M 78.98 92.43 C 84.28 92.44 89.57 92.44 94.87 92.43 C 94.89 109.93 94.87 127.43 94.88 144.93 C 89.56 144.94 84.25 144.94 78.94 144.94 C 78.96 127.43 78.89 109.93 78.98 92.43 Z" />
</g>
</svg>
