<svg xmlns="http://www.w3.org/2000/svg" width="40" height="29" fill="none"><rect width="39" height="26.565" x=".5" y=".955" fill="#006FCF" stroke="#F3F3F3" rx="3.5"/><path fill="#fff" fill-rule="evenodd" d="M8.18 20.366V14.69h6.431l.69.84.713-.84h23.34v5.283s-.611.386-1.317.392H25.113l-.777-.895v.895h-2.55v-1.527s-.348.213-1.1.213h-.868v1.314H15.96l-.689-.859-.7.859H8.18ZM.69 10.414l1.446-3.158h2.502l.821 1.769v-1.77h3.11l.49 1.28.473-1.28h13.961v.643s.734-.642 1.94-.642l4.53.014.807 1.747V7.256h2.603l.717 1.003V7.256h2.626v5.674H34.09l-.686-1.006v1.006h-3.824l-.385-.894h-1.028l-.378.894h-2.593c-1.038 0-1.702-.63-1.702-.63v.63h-3.91l-.776-.894v.894H4.267l-.384-.894H2.858l-.381.894H.689v-2.516Zm.007 1.79 1.951-4.249h1.48l1.949 4.25H4.778l-.358-.852H2.327l-.36.851H.697Zm3.31-1.773L3.37 8.944l-.64 1.487h1.278Zm2.205 1.772V7.954l1.805.007 1.05 2.74 1.025-2.747h1.79v4.25H10.75V9.071l-1.203 3.131h-.994l-1.206-3.13v3.13H6.212Zm6.447 0V7.954h3.701v.95h-2.555v.728H16.3v.894h-2.495v.755h2.555v.922h-3.701Zm4.357.001V7.955h2.525c.836 0 1.585.484 1.585 1.379 0 .764-.632 1.256-1.244 1.305l1.492 1.565h-1.386l-1.36-1.51h-.477v1.51h-1.134Zm2.432-3.298H18.15V9.8h1.313c.228 0 .52-.165.52-.447 0-.22-.226-.447-.537-.447Zm3.3 3.297h-1.159V7.954h1.159v4.25Zm2.745 0h-.25c-1.21 0-1.944-.892-1.944-2.107 0-1.244.726-2.142 2.254-2.142h1.253v1.007h-1.3c-.62 0-1.058.453-1.058 1.146 0 .823.502 1.168 1.224 1.168h.299l-.478.928Zm.517.001 1.95-4.249h1.48l1.95 4.25H30.09l-.358-.852H27.64l-.36.851h-1.27Zm3.31-1.773-.637-1.487-.64 1.487h1.278Zm2.202 1.772V7.954h1.443l1.84 2.67v-2.67h1.135v4.25h-1.395l-1.888-2.74v2.74h-1.135ZM8.957 19.64V15.39h3.701v.95h-2.555v.727h2.495v.895h-2.495v.755h2.555v.922H8.957Zm18.136 0V15.39h3.7v.95H28.24v.727h2.483v.895H28.24v.755h2.555v.922h-3.701Zm-14.29 0 1.801-2.098-1.845-2.151h1.43l1.098 1.33 1.103-1.33h1.373l-1.821 2.125 1.805 2.124H16.32l-1.067-1.309-1.041 1.309h-1.409Zm5.08 0v-4.248h2.505c1.028 0 1.628.62 1.628 1.429 0 .976-.765 1.478-1.776 1.478h-1.194v1.342h-1.164Zm2.42-3.287h-1.257v.978H20.3c.331 0 .563-.206.563-.49 0-.301-.233-.488-.56-.488Zm2.205 3.287V15.39h2.524c.837 0 1.586.484 1.586 1.378 0 .765-.632 1.257-1.244 1.306l1.492 1.565H25.48l-1.36-1.51h-.478v1.51h-1.134Zm2.431-3.299h-1.296v.895h1.313c.227 0 .52-.165.52-.447 0-.22-.226-.448-.537-.448Zm6.38 3.299v-.922h2.27c.337 0 .482-.17.482-.357 0-.178-.145-.36-.481-.36h-1.026c-.892 0-1.388-.508-1.388-1.272 0-.681.455-1.338 1.78-1.338h2.208l-.477.956h-1.91c-.366 0-.478.18-.478.35 0 .177.139.371.418.371h1.074c.994 0 1.426.528 1.426 1.22 0 .743-.481 1.352-1.48 1.352H31.32Zm3.997 0v-.922h2.27c.336 0 .481-.17.481-.357 0-.178-.145-.36-.481-.36H36.56c-.891 0-1.388-.508-1.388-1.272 0-.681.455-1.338 1.78-1.338h2.209l-.478.956h-1.91c-.366 0-.478.18-.478.35 0 .177.139.371.418.371h1.075c.993 0 1.425.528 1.425 1.22 0 .743-.48 1.352-1.48 1.352h-2.417Z" clip-rule="evenodd"/></svg>