<svg width="33" height="85" viewBox="0 0 33 85" fill="none" xmlns="http://www.w3.org/2000/svg">
<path d="M15.9913 0.871614C11.9479 1.41554 8.31405 8.42257 6.51037 12.5596C3.5508 19.3362 2.1021 26.8214 2.21526 34.7939C2.39075 47.1919 6.49256 60.0712 14.4241 73.2264C11.2708 71.6491 7.4581 69.7196 6.04255 68.6937C5.00027 67.9429 3.78364 67.767 2.70214 68.2322C1.53402 68.7317 0.702726 69.9418 0.58656 71.3156C0.472638 72.6476 1.07804 73.9435 2.20484 74.7599C7.37169 78.4938 19.5796 83.8506 19.5796 83.8506C21.5994 84.7367 24.4585 85.7813 26.1084 83.9019C26.9216 82.9676 27.2724 81.718 27.6045 80.5118C29.3371 74.1165 31.0627 67.7303 32.7952 61.335C31.8342 59.3138 30.1812 57.9732 27.9284 58.573C27.1743 58.7705 26.4251 59.0588 25.8499 59.569C24.8842 60.4285 21.7019 69.1049 22.217 69.896C17.4846 62.6873 13.4024 54.9685 10.8189 46.7893C9.47275 42.5271 8.54111 38.1373 8.2632 33.7184C8.05358 30.3961 7.76836 13.3619 17.0953 5.81561C17.9303 5.14456 18.9435 6.49611 19.8966 5.26452C20.5414 4.43138 20.4964 3.26592 19.7703 2.45611C18.4121 0.909367 16.9634 0.741876 15.9913 0.871614Z" fill="black"/>
</svg>
