<svg width="512pt" height="512pt" viewBox="0 0 512 512" version="1.1" xmlns="http://www.w3.org/2000/svg">
<path fill="#4bae4f" opacity="1.00" d=" M 249.59 0.00 L 262.33 0.00 C 295.65 0.99 328.86 8.12 359.29 21.81 C 413.52 45.59 458.74 88.97 485.15 141.92 C 501.91 175.25 510.89 212.31 512.00 249.57 L 512.00 260.59 C 511.23 298.46 502.16 336.19 485.14 370.07 C 468.32 403.61 444.14 433.45 414.68 456.70 C 384.49 480.69 348.82 497.80 311.12 506.00 C 295.14 509.63 278.78 511.35 262.42 512.00 L 253.37 512.00 C 210.40 511.54 167.54 500.17 130.19 478.87 C 93.71 458.16 62.35 428.47 39.90 393.02 C 14.67 353.74 0.86 307.36 0.00 260.70 L 0.00 248.87 C 1.37 204.24 14.36 159.97 37.93 122.00 C 59.32 87.37 89.02 57.93 123.82 36.82 C 161.60 13.84 205.43 1.21 249.59 0.00 M 357.50 169.43 C 311.16 215.73 264.85 262.06 218.54 308.38 C 198.33 288.26 178.20 268.06 158.02 247.90 C 155.51 245.44 153.13 242.62 149.75 241.33 C 143.60 238.71 135.84 240.32 131.48 245.48 C 126.14 251.37 126.34 261.33 131.93 267.00 C 156.58 291.70 181.30 316.34 205.95 341.05 C 207.94 343.14 210.24 345.05 213.01 346.01 C 218.82 348.26 225.77 346.54 230.04 342.06 C 279.90 292.22 329.75 242.37 379.59 192.51 C 385.96 186.55 385.98 175.34 379.53 169.44 C 373.74 163.57 363.27 163.54 357.50 169.43 Z" />
<path fill="#ffffff" opacity="1.00" d=" M 357.50 169.43 C 363.27 163.54 373.74 163.57 379.53 169.44 C 385.98 175.34 385.96 186.55 379.59 192.51 C 329.75 242.37 279.90 292.22 230.04 342.06 C 225.77 346.54 218.82 348.26 213.01 346.01 C 210.24 345.05 207.94 343.14 205.95 341.05 C 181.30 316.34 156.58 291.70 131.93 267.00 C 126.34 261.33 126.14 251.37 131.48 245.48 C 135.84 240.32 143.60 238.71 149.75 241.33 C 153.13 242.62 155.51 245.44 158.02 247.90 C 178.20 268.06 198.33 288.26 218.54 308.38 C 264.85 262.06 311.16 215.73 357.50 169.43 Z" />
</svg>
