<svg xmlns="http://www.w3.org/2000/svg" width="40" height="29" fill="none"><rect width="39" height="26.565" x=".5" y=".955" fill="#fff" stroke="#F3F3F3" rx="3.5"/><path fill="#1D1D1B" fill-rule="evenodd" d="M13.151 14.46c0 1.682 1.323 2.987 3.025 2.987.48 0 .893-.095 1.401-.334V15.8c-.447.447-.843.627-1.35.627-1.125 0-1.924-.816-1.924-1.975 0-1.1.824-1.967 1.873-1.967.533 0 .936.19 1.401.645v-1.314c-.49-.249-.894-.352-1.375-.352-1.693 0-3.05 1.331-3.05 2.996Zm-2.868-1.391c0 .309.197.472.868.72 1.271.465 1.648.877 1.648 1.787 0 1.108-.815 1.88-1.976 1.88-.85 0-1.47-.335-1.984-1.09l.722-.695c.257.497.687.764 1.22.764.498 0 .867-.344.867-.808a.686.686 0 0 0-.335-.593c-.112-.069-.335-.171-.772-.326-1.05-.377-1.41-.78-1.41-1.57 0-.937.773-1.64 1.787-1.64.628 0 1.203.214 1.684.635l-.585.765c-.291-.326-.567-.464-.901-.464-.482 0-.833.274-.833.635ZM7.3 17.318h1.118v-5.726H7.3v5.726Zm-2.284-1.425c-.351.317-.808.456-1.53.456h-.3v-3.787h.3c.722 0 1.16.13 1.53.464.386.343.619.876.619 1.425 0 .55-.233 1.099-.62 1.442Zm-1.306-4.3H2.07v5.725H3.7c.868 0 1.495-.205 2.045-.661a2.871 2.871 0 0 0 1.04-2.198c0-1.69-1.263-2.867-3.076-2.867Zm21.2 0 1.529 3.845 1.548-3.846h1.211l-2.475 5.873h-.602l-2.431-5.873h1.22Zm4.794 5.725h3.17v-.97H30.82v-1.545h1.978v-.97H30.82v-1.27h2.053v-.97h-3.17v5.725Zm5.026-3.09h.326c.714 0 1.093-.31 1.093-.885 0-.557-.379-.849-1.075-.849h-.344v1.734Zm.54-2.636c1.29 0 2.028.619 2.028 1.69 0 .877-.463 1.453-1.305 1.624l1.804 2.412h-1.374l-1.547-2.3h-.146v2.3h-1.117v-5.726h1.658Z" clip-rule="evenodd"/><path fill="url(#a)" fill-rule="evenodd" d="M23.558 16.116a3.044 3.044 0 0 0-.925-4.207 3.05 3.05 0 0 0-4.21.925 3.044 3.044 0 0 0 .925 4.207 3.05 3.05 0 0 0 4.21-.925Z" clip-rule="evenodd"/><defs><linearGradient id="a" x1="25.2" x2="20.067" y1="13.55" y2="10.265" gradientUnits="userSpaceOnUse"><stop stop-color="#F6A000"/><stop offset=".624" stop-color="#E47E02"/><stop offset="1" stop-color="#D36002"/></linearGradient></defs></svg>