<?xml version="1.0" encoding="UTF-8"?><svg id="b" xmlns="http://www.w3.org/2000/svg" viewBox="0 0 65.8229 80.4502"><defs><style>.d{fill:#fff;}</style></defs><g id="c"><path class="d" d="m18.2841,36.5683h29.2546v-10.9705c0-4.0377-1.4284-7.4851-4.2853-10.342-2.8569-2.8569-6.3042-4.2853-10.342-4.2853s-7.4851,1.4284-10.342,4.2853-4.2853,6.3042-4.2853,10.342v10.9705Zm47.5387,5.4852v32.9114c0,1.5237-.5333,2.8188-1.5999,3.8854-1.0666,1.0666-2.3617,1.5999-3.8854,1.5999H5.4852c-1.5237,0-2.8188-.5333-3.8854-1.5999-1.0666-1.0666-1.5999-2.3617-1.5999-3.8854v-32.9114c0-1.5237.5333-2.8188,1.5999-3.8854s2.3617-1.5999,3.8854-1.5999h1.8284v-10.9705c0-7.0089,2.5141-13.0274,7.5422-18.0556S25.9025,0,32.9114,0s13.0274,2.5141,18.0556,7.5422,7.5422,11.0467,7.5422,18.0556v10.9705h1.8284c1.5237,0,2.8188.5333,3.8854,1.5999s1.5999,2.3617,1.5999,3.8854Z"/></g></svg>