<svg xmlns="http://www.w3.org/2000/svg" width="40" height="29" fill="none"><rect width="39" height="26.565" x=".5" y=".955" fill="#fff" stroke="#F3F3F3" rx="3.5"/><path fill="#FF5F00" d="M23.662 20.423h-7.139V7.699h7.14v12.724Z"/><path fill="#EB001B" d="M16.98 14.06a8.055 8.055 0 0 1 3.117-6.362 8.166 8.166 0 0 0-5.042-1.73c-4.506 0-8.159 3.622-8.159 8.092 0 4.469 3.653 8.092 8.159 8.092a8.166 8.166 0 0 0 5.042-1.73 8.055 8.055 0 0 1-3.116-6.362Z"/><path fill="#F79E1B" d="M33.29 14.06c0 4.469-3.653 8.092-8.159 8.092a8.168 8.168 0 0 1-5.042-1.73 8.054 8.054 0 0 0 3.117-6.362 8.054 8.054 0 0 0-3.117-6.362 8.168 8.168 0 0 1 5.043-1.73c4.505 0 8.158 3.622 8.158 8.092Z"/></svg>