<svg width="512pt" height="512pt" viewBox="0 0 512 512" version="1.1" xmlns="http://www.w3.org/2000/svg">
<path fill="#194498" opacity="1.00" d=" M 248.51 0.00 L 262.55 0.00 C 304.23 1.20 345.71 12.34 381.93 33.12 C 429.41 59.86 467.88 102.22 489.99 152.03 C 503.58 182.35 510.80 215.35 512.00 248.52 L 512.00 262.55 C 510.88 299.76 501.93 336.77 485.22 370.06 C 468.30 403.85 443.91 433.90 414.17 457.22 C 384.32 480.80 349.16 497.63 312.00 505.83 C 295.79 509.59 279.17 511.32 262.55 512.00 L 249.49 512.00 C 208.28 510.83 167.37 499.81 131.39 479.65 C 76.37 449.03 33.32 397.54 13.35 337.80 C 5.21 313.87 0.97 288.72 0.00 263.49 L 0.00 249.42 C 1.34 199.50 17.38 149.99 46.30 109.21 C 65.72 81.41 90.76 57.58 119.44 39.50 C 157.83 14.93 203.01 1.51 248.51 0.00 M 231.81 105.79 C 214.03 111.03 198.16 122.38 187.30 137.39 C 177.06 151.39 171.35 168.63 171.19 185.97 C 171.12 200.95 171.20 215.92 171.15 230.89 C 157.80 233.63 147.22 246.16 147.29 259.88 C 147.28 292.94 147.19 326.00 147.34 359.06 C 147.70 374.43 161.61 387.76 176.96 387.58 C 229.31 387.62 281.65 387.59 334.00 387.60 C 341.34 387.74 348.73 385.17 354.26 380.31 C 361.00 374.61 364.88 365.82 364.73 357.02 C 364.72 324.66 364.77 292.29 364.71 259.93 C 364.78 246.21 354.24 233.63 340.86 230.90 C 340.81 216.26 340.87 201.62 340.83 186.99 C 340.81 172.44 337.01 157.90 329.78 145.27 C 320.26 128.50 304.91 115.07 286.92 108.10 C 269.50 101.20 249.75 100.40 231.81 105.79 Z" />
<path fill="#194498" opacity="1.00" d=" M 227.42 158.38 C 235.36 150.35 246.79 145.96 258.06 146.60 C 269.62 147.10 280.77 152.92 287.87 162.04 C 293.45 169.06 296.52 177.98 296.56 186.94 C 296.60 201.40 296.60 215.87 296.55 230.34 C 269.52 230.33 242.49 230.33 215.46 230.34 C 215.42 215.89 215.42 201.44 215.46 186.99 C 215.44 176.37 219.83 165.82 227.42 158.38 Z" />
<path fill="#194498" opacity="1.00" d=" M 229.57 299.11 C 230.78 286.79 241.66 276.36 254.03 275.69 C 266.64 274.48 279.15 283.63 281.85 295.99 C 284.75 307.17 279.24 319.58 269.29 325.31 C 269.25 335.16 269.30 345.01 269.27 354.86 C 260.42 354.87 251.58 354.86 242.73 354.87 C 242.68 344.99 242.76 335.12 242.70 325.25 C 233.69 320.08 228.23 309.45 229.57 299.11 Z" />
</svg>
