<svg width="18" height="19" viewBox="0 0 18 19" fill="none" xmlns="http://www.w3.org/2000/svg">
<g clip-path="url(#clip0_141_2158)">
<path fill-rule="evenodd" clip-rule="evenodd" d="M17.1004 9.45453C17.1004 13.928 13.4739 17.5545 9.00039 17.5545C4.52688 17.5545 0.900391 13.928 0.900391 9.45453C0.900391 4.98102 4.52688 1.35453 9.00039 1.35453C13.4739 1.35453 17.1004 4.98102 17.1004 9.45453ZM8.95689 4.60229C7.89687 4.58135 6.82557 5.01793 6.48565 6.03123C6.34872 6.4372 6.50337 6.79483 6.8449 6.95754C7.28107 7.1634 7.44081 6.97365 7.65242 6.72229C7.70576 6.65892 7.7624 6.59164 7.8276 6.5258C8.16107 6.1875 8.65081 5.99901 9.12444 6.05701C9.50785 6.10372 9.89771 6.33409 10.0073 6.70462C10.1168 7.07676 9.91543 7.47467 9.64478 7.75176C9.50404 7.89585 9.34412 8.01904 9.1843 8.14215C9.03679 8.25578 8.88935 8.36935 8.75713 8.49925C8.18201 9.0647 8.00481 9.84925 8.08697 10.629C8.12724 11.0156 8.37533 11.1719 8.84251 11.1396C9.32742 11.1074 9.52557 10.9431 9.50463 10.5355C9.4708 9.87986 9.75272 9.4159 10.2408 8.99543C10.6613 8.63296 11.0657 8.21088 11.3476 7.73726C11.8792 6.84155 11.6215 5.83147 10.8192 5.20319C10.3391 4.82622 9.64962 4.61518 8.95689 4.60229ZM7.81309 12.9969C7.8147 13.5318 8.25127 13.9748 8.77645 13.9716C9.30324 13.97 9.74143 13.5269 9.74465 12.9969C9.74787 12.4556 9.30808 12.0142 8.7684 12.0158C8.23839 12.0175 7.81148 12.4572 7.81309 12.9969Z" fill="#9A9A9A"/>
</g>
<defs>
<clipPath id="clip0_141_2158">
<rect width="18" height="18" fill="white" transform="translate(0 0.454529)"/>
</clipPath>
</defs>
</svg>
