<svg xmlns="http://www.w3.org/2000/svg" width="1913pt" height="680" viewBox="0 0 1913 510"><path fill="#77bc1f" d="M176.52 0h11.74c31.77 1.59 63.1 14.53 85.71 37.08 24.37 23.94 39.38 57.67 39.12 91.99.61 9.64-.37 19.3.13 28.93-16.82-.01-33.65.01-50.47-.01-.32-12.95.78-25.98-.85-38.88-3.1-21.24-15.42-40.81-32.77-53.34-14.14-10.27-31.65-15.99-49.17-15.28-33.32.68-64.24 24.72-74.21 56.33-5.66 16.5-3.02 34.15-3.78 51.19-16.82-.02-33.64 0-50.47-.01.19-13.35-.5-26.72.58-40.04 3.04-33.56 19.91-65.55 45.66-87.24C119.63 12.08 147.85 1.37 176.52 0Z"/><path fill="#333" d="M476.29 66.25c22.6-15.5 50.83-19.64 77.69-19.14 28.51.79 57.65 6.86 82.19 21.92-5.89 14.53-11.79 29.06-17.71 43.58-24.45-14.05-53-21.93-81.28-18.86-9.88 1.08-20.32 3.63-27.57 10.89-6.4 6.09-8.74 16.08-5.58 24.35 2.35 6.01 8 9.89 13.77 12.25 19.6 8.28 40.84 11.15 61.14 17.17 14.55 4.34 29.74 8.23 42.17 17.37 8.03 5.95 15.55 13.14 19.9 22.29 5.05 10.52 6.31 22.48 5.59 34.02-1.24 18.67-10.77 36.51-25.37 48.16-15.44 12.39-34.78 19.07-54.25 21.63-33.76 4.29-68.68.11-100.3-12.58-9.21-3.76-18.08-8.45-26.03-14.46 6.49-14.41 12.98-28.82 19.48-43.23 26.17 18.48 58.89 27.46 90.82 25.56 11.14-.82 23.2-2.69 31.78-10.48 6.63-5.72 8.98-15.82 5.34-23.81-2.33-5.07-7.05-8.46-11.73-11.19-8.75-4.93-18.67-7.11-28.28-9.73-19.72-4.78-39.58-9.33-58.63-16.44-13.12-4.87-24.84-13.5-33.33-24.62-9.6-13.1-11.67-30.23-9.9-46 2.28-19.6 13.67-37.76 30.09-48.65ZM971.54 64.48c19.01-10.65 40.65-16.24 62.38-17.21 29.43-1.49 59.91 4.56 84.74 20.97 9.57 6.25 18.17 13.97 25.5 22.75-12.29 11.34-24.53 22.72-36.88 34-8.33-9.65-18.61-17.78-30.39-22.77-15.35-6.57-32.66-7.65-48.99-4.73-18.86 3.37-36.57 13.91-47.67 29.65-9.57 13.26-14.3 29.61-14.55 45.87-.48 16.9 3.59 34.16 13.07 48.29 9.88 15.14 25.75 25.96 43.18 30.46 16.23 4.1 33.74 3.99 49.66-1.42 14.01-4.74 26.18-13.93 35.73-25.11 12.29 11.32 24.55 22.66 36.83 33.99-15.25 18.9-36.81 32.22-60.1 38.71-25.15 6.93-52.06 7.39-77.49 1.66-30.63-7.08-59.05-25.09-76.92-51.18-11.48-16.41-18.7-35.7-21.04-55.57-2.75-23.3-.24-47.51 9.09-69.16 10.68-25.02 29.98-46.16 53.85-59.2ZM686.15 51.33c62.46.01 124.91-.01 187.36.01-.01 15.35.02 30.7-.01 46.05H743.18c-.02 17.93 0 35.87 0 53.81 38.36.01 76.72 0 115.09 0 .02 14.88.01 29.76 0 44.64-38.36.01-76.73-.01-115.09.01-.01 19.12-.01 38.23 0 57.35 44.97.01 89.94-.01 134.92.01.02 15.35.01 30.7 0 46.05-63.99.01-127.97.02-191.96 0 0-82.65-.01-165.29.01-247.93ZM1178.47 51.4c19.14-.17 38.28-.02 57.42-.07.03 44.22.01 88.45.01 132.68-.19 16.73 1.27 34.43 10.24 49.01 6.06 9.99 16.38 17.01 27.7 19.64 11.32 2.65 23.32 2.65 34.64-.03 11.94-2.84 22.79-10.48 28.81-21.26 7.56-13.43 9.08-29.25 9.1-44.38V51.33c18.88-.01 37.76.01 56.64-.01.12 40.21.01 80.43.05 120.64-.08 13.72.46 27.5-1.46 41.13-2.55 19.57-9.38 39.01-22.06 54.36-12.49 15.34-30.17 25.99-49.18 31.12-19.32 5.25-39.67 5.96-59.49 3.81-21.58-2.44-43.05-10.25-59.31-24.97-15.59-13.74-25.46-33.07-29.69-53.25-4.63-20.42-3.12-41.47-3.38-62.23-.02-36.84.06-73.68-.04-110.53ZM1459.62 51.38c26.78-.12 53.57-.02 80.36-.05 21.57.18 43.52-1.26 64.62 4.25 19.57 4.83 38.46 14.7 51.44 30.43 10.37 12.34 16.43 27.97 18.01 43.95 1.96 19.14-.76 39.33-10.83 56-8.96 15.16-23.31 26.64-39.4 33.52 18.14 26.8 37.01 53.13 55.4 79.76-20.5.05-41-.06-61.5.06-16.12-22.94-31.92-46.09-47.95-69.1-17.58 0-35.15.01-52.73 0-.03 23.01.01 46.03-.02 69.04-19.12.02-38.25.02-57.37 0-.04-82.62.03-165.24-.03-247.86m57.42 46.71c-.02 28.8-.01 57.6-.01 86.4 15.32.01 30.64.01 45.96.01 15.94.14 33.86-3.01 44.64-15.9 5.37-6.31 8.12-14.51 8.73-22.7.67-9.24-.5-18.94-5.18-27.08-4.2-7.39-11.22-12.89-19.04-16.01-8.89-3.6-18.58-4.68-28.1-4.71-15.67-.01-31.34 0-47-.01ZM1720.15 51.33c62.46.01 124.91-.01 187.36.01-.01 15.35.02 30.7-.01 46.05-43.44 0-86.88.01-130.32 0-.02 17.93-.01 35.87 0 53.81 38.36.01 76.72-.01 115.09.01.02 14.87.01 29.75 0 44.63-38.36.01-76.73-.01-115.09.01-.01 19.12-.01 38.23 0 57.35 45.04-.03 90.09.08 135.14-.06.27 15.36.04 30.74.11 46.1-64.1.02-128.19.02-192.29 0 0-82.64-.01-165.27.01-247.91Z"/><path fill="#77bc1f" d="M0 182.25h364.24c.02 109.25.01 218.5.01 327.75H0V182.25m192.34 159.07c-16.68 17.17-33.83 33.87-50.66 50.9-18.17-17.99-36.19-36.13-54.26-54.21-6.59 5.84-12.37 12.51-18.63 18.69 24.15 24.46 48.42 48.84 72.97 72.91C193.78 377.32 245.95 325.16 298.12 273c-6.28-6.3-12.57-12.59-18.87-18.86-28.79 29.23-57.97 58.08-86.91 87.18Z"/><path fill="#fff" d="M192.34 341.32c28.94-29.1 58.12-57.95 86.91-87.18 6.3 6.27 12.59 12.56 18.87 18.86-52.17 52.16-104.34 104.32-156.36 156.61-24.55-24.07-48.82-48.45-72.97-72.91 6.26-6.18 12.04-12.85 18.63-18.69 18.07 18.08 36.09 36.22 54.26 54.21 16.83-17.03 33.98-33.73 50.66-50.9Z"/><path fill="#a0a2a2" d="M462.58 348.54c8.41-8.66 20.76-12.06 32.5-12.7 14.82-.7 30.29 1.72 43.12 9.53-2.57 6.5-5.26 12.96-7.88 19.44-11.72-6.87-25.8-10.38-39.3-7.79-4.54.86-9.2 3.49-10.85 8.03-.88 3.04-.71 6.78 1.69 9.13 2.78 2.63 6.59 3.71 10.14 4.9 9.15 2.7 18.59 4.33 27.64 7.42 7.25 2.1 14.17 6.08 18.71 12.23 4.45 6.2 5.13 14.35 3.92 21.68-1.73 9.74-8.79 17.98-17.62 22.16-11.51 5.96-24.95 6.3-37.6 5.31-12.28-1.5-24.9-4.72-34.95-12.22 2.99-6.35 5.78-12.8 8.7-19.18 12.79 8.99 29.13 13.13 44.62 10.76 5.37-.87 11.75-4.1 12.11-10.22.46-5.7-5.15-9.11-9.82-10.72-12.05-4.02-24.87-5.55-36.55-10.7-6.91-3.25-13.19-8.89-15.47-16.37-3.03-10.51-.83-22.7 6.89-30.69ZM582.85 337.36c18.25-3.58 38.23-1.54 54.43 8.01-2.67 6.46-5.33 12.92-7.87 19.43-12.03-6.92-26.46-10.58-40.23-7.59-5.1 1.12-10.52 5.05-10.47 10.76-.52 4.18 2.82 7.6 6.48 8.99 10.53 4.32 21.98 5.58 32.72 9.29 7.68 2.2 15.16 6.29 19.82 12.97 3.96 5.77 4.53 13.15 3.78 19.92-1.3 9.73-7.88 18.29-16.53 22.74-11.5 6.42-25.14 7.01-37.97 6.08-12.59-1.33-25.4-4.69-35.81-12.14 2.73-6.5 5.73-12.88 8.63-19.3 10.81 7.62 24.1 11.55 37.3 11.42 5.8-.32 12.39-.78 16.74-5.14 3.34-3 3.69-8.86.4-12.02-3.53-3.53-8.52-4.91-13.19-6.21-9.11-2.38-18.37-4.26-27.24-7.47-8.14-2.85-15.88-8.72-18.86-17.05-2.9-9.09-1.88-19.62 3.53-27.6 5.47-8.25 14.93-12.93 24.34-15.09ZM1064.87 336.95c10.93-2 22.39-1.68 33.07 1.53 9.81 2.92 18.75 8.72 25.29 16.61-5.43 5.05-10.89 10.05-16.32 15.09-4.44-4.82-9.75-9.06-16.09-11.03-12.21-3.84-26.71-1.39-35.99 7.73-12.14 11.99-13.18 33-3.22 46.62 9.97 13.54 30.35 16.98 44.8 8.91 4.05-2.14 7.32-5.39 10.47-8.67 5.36 4.89 10.72 9.8 16.01 14.78l.03.54c-8.39 10.64-21.49 16.88-34.77 18.63-13.16 1.65-27.04.26-38.93-5.93-14.75-7.19-25.82-21.5-28.88-37.65-2.81-14.64-.65-30.61 7.77-43.12 8.24-12.66 22-21.26 36.76-24.04ZM1652.48 336.75c17.85-3.08 37.38.42 51.63 12.05 13.81 10.84 21.38 28.68 20.23 46.13-.5 16.67-9.2 32.88-22.93 42.37-16.7 11.92-39.27 13.86-58.49 7.55-16.45-5.44-30.21-18.84-35.19-35.55-4.54-15.27-3.04-32.57 5.28-46.3 8.37-14.09 23.42-23.56 39.47-26.25m2.94 21.84c-4.99 1.37-9.73 3.79-13.5 7.35-13.78 12.33-14.62 35.81-2.61 49.62 11.32 13.11 32.94 14.8 46.5 4.23 18.09-13.64 17.03-45.28-2.43-57.19-8.19-5.26-18.63-6.37-27.96-4.01ZM658.75 337.51c8.5-.02 17-.02 25.5 0v88.24c18.17 0 36.33-.01 54.5.01-.04 6.92.07 13.85-.06 20.78-26.65-.09-53.29-.01-79.94-.04-.01-36.33 0-72.66 0-108.99ZM975.5 337.51c8.33-.02 16.66-.01 25-.01 0 36.34.01 72.67-.01 109-6.93.02-13.87-.04-20.8.04-18.03-21.83-35.92-43.78-53.94-65.62-.01 21.86.02 43.73-.02 65.59-8.41-.02-16.82-.01-25.22-.01-.02-36.33-.02-72.67 0-109 7.04.01 14.08-.02 21.12.01 17.93 21.97 35.9 43.92 53.91 65.83-.09-21.95-.01-43.89-.04-65.83ZM1139.75 337.51c15.74-.03 31.49-.01 47.24 0 11.75.12 24.05 2.51 33.53 9.88 14.4 10.74 17.43 32.25 9.63 47.81-3.81 7.42-10.53 13.07-18.14 16.31 8.07 11.65 16.41 23.14 24.23 34.97-9.11 0-18.23.11-27.33-.06-6.35-9.42-12.94-18.67-19.33-28.06-.74-.86-1.24-2.41-2.65-2.11-7.23-.02-14.46.01-21.68 0v30.24c-8.5.02-17 .02-25.5 0V337.51m25.5 20.74c0 12.58.01 25.16 0 37.74 8.28-.14 16.58.35 24.85-.29 6.66-.48 13.63-3.69 16.66-9.95 3.1-7.11 2.41-16.56-3.52-22.03-4.64-4.25-11.17-5.26-17.22-5.44-6.92-.07-13.85-.01-20.77-.03ZM1453.09 337.44c31.62.12 63.24.05 94.87.03.09 6.93.02 13.85.04 20.78h-34.75v88.24c-8.5.01-17.01.03-25.51-.01.01-29.41 0-58.82.01-88.23-11.59 0-23.17.01-34.75 0 .04-6.94-.11-13.87.09-20.81ZM1743.03 337.48c7.04.08 14.09-.08 21.14.09 17.88 21.94 35.81 43.85 53.8 65.7.1-21.93-.06-43.87.08-65.8 8.3.05 16.61.04 24.91.01.07 36.34.05 72.69.02 109.03-6.92 0-13.83-.06-20.73.04-18.13-21.74-35.94-43.75-53.98-65.57-.04 21.83-.01 43.67-.02 65.51-8.41.03-16.82-.01-25.23.02-.04-36.34-.04-72.68.01-109.03ZM796.51 446.5c-.02-36.33-.02-72.67 0-109 27.37-.05 54.75.11 82.12-.08.26 6.85.04 13.71.12 20.57-19 .02-38 0-57 .01 0 7.75-.01 15.5 0 23.25h50.49c.02 6.66.01 13.33.01 20-16.83 0-33.66.01-50.48 0-.05 8.24-.02 16.49-.02 24.75 19.67.01 39.33-.02 59 .01-.03 6.83.03 13.67-.03 20.51-28.07-.04-56.14-.01-84.21-.02ZM1237.1 337.51c9.02-.02 18.05-.01 27.07-.01 9.63 16.03 19.21 32.1 28.93 48.08 9.73-15.97 19.28-32.06 28.94-48.08 8.35-.02 16.71.03 25.06-.02-13.99 23.56-28.38 46.9-42.26 70.52-.22 12.82-.04 25.66-.08 38.49-8.51.02-17.02.02-25.52 0-.02-12.91.08-25.83-.04-38.74-13.8-23.53-28.16-46.78-42.1-70.24ZM1356.25 446.49c.02-36.33-.03-72.67.02-109 15.59.02 31.18 0 46.77.01 9.94.15 20.19 1.65 28.94 6.67 7.64 4.17 13.82 11.15 16.54 19.47 2.1 5.83 2.24 12.12 1.87 18.25-.9 10.42-6.52 20.42-15.28 26.22-8.49 5.83-18.91 8.07-29.06 8.39-8.19.01-16.37-.01-24.55 0-.01 10 .01 20-.01 30-8.42-.01-16.83.01-25.24-.01m25.29-88.26c-.08 12.5-.03 25.01-.03 37.52 7.5-.03 15 .03 22.51-.02 5.23-.22 10.76-1.35 14.9-4.79 6.83-5.5 7.58-16.09 3.66-23.52-3.58-6.36-11.24-8.71-18.1-9.05-7.64-.29-15.3-.01-22.94-.14ZM1561.25 337.51c8.41-.02 16.82 0 25.24-.01.02 36.33.01 72.67 0 109-8.43-.03-16.85.06-25.27-.05.07-36.31.02-72.63.03-108.94Z"/></svg>