<svg width="384pt" height="470pt" viewBox="0 0 384 470" version="1.1" xmlns="http://www.w3.org/2000/svg">
<path fill="#024493" opacity="1.00" d=" M 177.04 2.12 C 187.88 -0.55 199.35 -0.10 210.08 2.87 C 253.66 13.88 297.36 24.35 340.93 35.37 C 348.98 37.42 357.44 38.87 364.47 43.58 C 374.18 49.91 381.91 60.40 383.14 72.09 L 384.00 71.29 L 384.00 277.15 L 383.05 275.41 C 383.11 285.36 380.78 295.14 378.68 304.82 C 368.25 347.95 342.51 387.20 306.99 413.81 C 294.18 423.66 279.86 431.27 265.36 438.29 C 246.90 447.47 228.52 456.83 210.00 465.89 C 205.74 468.15 200.89 468.58 196.39 470.00 L 192.51 470.00 C 189.68 469.25 186.70 469.52 183.86 468.83 C 176.33 467.48 169.73 463.43 162.94 460.16 C 142.72 449.98 122.39 440.02 102.25 429.70 C 69.58 412.23 42.12 385.17 24.26 352.71 C 9.15 325.61 0.95 294.83 0.00 263.85 L 0.00 76.35 C 1.42 59.08 13.97 43.33 30.77 38.73 C 79.51 26.47 128.29 14.36 177.04 2.12 M 178.07 45.84 C 132.93 57.16 87.76 68.38 42.63 79.75 C 42.72 139.49 42.63 199.23 42.67 258.97 C 42.68 277.41 46.09 295.84 52.72 313.05 C 64.01 342.61 84.86 368.43 111.46 385.60 C 119.84 391.21 129.01 395.46 138.00 399.98 C 155.99 409.00 174.01 417.97 192.00 427.01 C 213.56 416.26 235.10 405.47 256.65 394.69 C 267.06 389.52 276.93 383.23 285.92 375.85 C 320.05 348.17 340.92 304.98 341.29 261.03 C 341.39 200.62 341.28 140.21 341.35 79.79 C 320.08 74.13 298.63 69.09 277.31 63.63 C 250.49 57.00 223.71 50.17 196.88 43.59 C 190.51 41.84 184.23 44.49 178.07 45.84 Z" />
<path fill="#c4e6ff" opacity="1.00" d=" M 277.31 63.63 C 298.63 69.09 320.08 74.13 341.35 79.79 C 341.28 140.21 341.39 200.62 341.29 261.03 C 340.92 304.98 320.05 348.17 285.92 375.85 C 276.93 383.23 267.06 389.52 256.65 394.69 C 235.10 405.47 213.56 416.26 192.00 427.01 C 192.00 416.32 192.00 405.64 192.00 394.96 C 190.87 381.09 195.71 366.54 206.46 357.37 C 212.78 351.62 221.15 349.05 228.11 344.23 C 246.87 332.39 261.37 314.39 269.84 293.95 C 274.11 290.15 276.99 284.74 277.26 278.98 C 277.43 256.02 278.09 233.02 277.44 210.06 C 277.18 161.25 277.44 112.44 277.31 63.63 Z" />
<path fill="#1e93ff" opacity="1.00" d=" M 174.56 109.41 C 190.84 104.78 208.96 106.89 223.64 115.36 C 238.96 124.04 250.37 139.31 254.33 156.47 C 257.03 168.18 255.70 180.29 255.95 192.19 C 260.19 192.57 264.49 193.51 268.02 196.03 C 272.99 199.20 275.66 204.64 277.44 210.06 C 278.09 233.02 277.43 256.02 277.26 278.98 C 276.99 284.74 274.11 290.15 269.84 293.95 C 265.94 297.07 261.06 299.04 256.02 298.99 C 213.33 299.01 170.63 299.01 127.93 298.98 C 116.68 299.24 106.54 289.23 106.69 277.97 C 106.66 256.34 106.64 234.70 106.70 213.07 C 106.69 201.84 116.84 192.15 128.00 192.28 C 128.02 184.85 127.97 177.42 128.02 169.99 C 128.16 157.81 131.92 145.71 138.69 135.58 C 147.10 123.03 159.97 113.45 174.56 109.41 M 180.20 153.23 C 174.32 157.09 170.60 163.99 170.67 171.03 C 170.65 178.13 170.68 185.23 170.66 192.33 C 184.89 192.33 199.11 192.34 213.33 192.33 C 213.31 184.91 213.39 177.49 213.29 170.08 C 213.06 162.64 208.55 155.56 201.96 152.14 C 195.23 148.51 186.54 148.93 180.20 153.23 Z" />
</svg>
