<svg xmlns="http://www.w3.org/2000/svg" width="289" height="36" fill="none"><path fill="#DEDEDE" d="M4.447 31.108c-.68 0-1.288-.088-1.824-.264a4.31 4.31 0 0 1-1.404-.756l.36-.792c.28.208.56.384.84.528.288.136.596.24.924.312a5.79 5.79 0 0 0 1.104.096c.712 0 1.24-.132 1.584-.396.344-.264.516-.616.516-1.056 0-.376-.12-.664-.36-.864-.24-.2-.66-.36-1.26-.48l-1.26-.252c-.776-.16-1.356-.42-1.74-.78-.376-.36-.564-.848-.564-1.464 0-.504.128-.944.384-1.32.264-.376.632-.668 1.104-.876.472-.208 1.02-.312 1.644-.312.6 0 1.148.092 1.644.276.496.176.92.436 1.272.78l-.348.768a3.509 3.509 0 0 0-1.188-.72 3.969 3.969 0 0 0-1.392-.228c-.656 0-1.176.144-1.56.432-.376.28-.564.664-.564 1.152 0 .392.12.7.36.924.24.216.636.38 1.188.492l1.272.252c.816.168 1.416.42 1.8.756.384.336.576.808.576 1.416 0 .464-.128.876-.384 1.236-.248.36-.604.64-1.068.84-.464.2-1.016.3-1.656.3ZM11.04 31v-7.62H8.052v-.84h6.96v.84h-2.976V31h-.996Zm5.19 0v-8.46h5.4v.816h-4.428v2.94h4.164v.828h-4.164v3.048h4.428V31h-5.4Zm7.055 0v-8.46h3.444c.887 0 1.572.216 2.052.648.48.424.72 1.016.72 1.776 0 .744-.24 1.336-.72 1.776-.48.432-1.165.648-2.052.648H24.28V31h-.996Zm.995-4.44h2.352c.616 0 1.08-.14 1.392-.42.32-.28.48-.672.48-1.176 0-.512-.16-.908-.48-1.188-.312-.28-.776-.42-1.392-.42H24.28v3.204ZM34.698 31v-.852h1.992v-6.756h.528l-2.328 1.452v-.996l2.076-1.308h.72v7.608h1.872V31h-4.86ZM88.447 31.108c-.68 0-1.288-.088-1.824-.264a4.31 4.31 0 0 1-1.404-.756l.36-.792c.28.208.56.384.84.528.288.136.596.24.924.312a5.79 5.79 0 0 0 1.104.096c.712 0 1.24-.132 1.584-.396.344-.264.516-.616.516-1.056 0-.376-.12-.664-.36-.864-.24-.2-.66-.36-1.26-.48l-1.26-.252c-.776-.16-1.356-.42-1.74-.78-.376-.36-.564-.848-.564-1.464 0-.504.128-.944.384-1.32.264-.376.632-.668 1.104-.876.472-.208 1.02-.312 1.644-.312.6 0 1.148.092 1.644.276.496.176.92.436 1.272.78l-.348.768a3.509 3.509 0 0 0-1.188-.72 3.969 3.969 0 0 0-1.392-.228c-.656 0-1.176.144-1.56.432-.376.28-.564.664-.564 1.152 0 .392.12.7.36.924.24.216.636.38 1.188.492l1.272.252c.816.168 1.416.42 1.8.756.384.336.576.808.576 1.416 0 .464-.128.876-.384 1.236-.248.36-.604.64-1.068.84-.464.2-1.016.3-1.656.3ZM95.04 31v-7.62h-2.988v-.84h6.96v.84h-2.976V31h-.996Zm5.19 0v-8.46h5.4v.816h-4.428v2.94h4.164v.828h-4.164v3.048h4.428V31h-5.4Zm7.055 0v-8.46h3.444c.888 0 1.572.216 2.052.648.48.424.72 1.016.72 1.776 0 .744-.24 1.336-.72 1.776-.48.432-1.164.648-2.052.648h-2.448V31h-.996Zm.996-4.44h2.352c.616 0 1.08-.14 1.392-.42.32-.28.48-.672.48-1.176 0-.512-.16-.908-.48-1.188-.312-.28-.776-.42-1.392-.42h-2.352v3.204Zm9.925 4.44v-.744l3-3.132c.392-.408.684-.796.876-1.164.2-.376.3-.764.3-1.164 0-.488-.152-.856-.456-1.104-.304-.256-.744-.384-1.32-.384-.448 0-.864.08-1.248.24a3.49 3.49 0 0 0-1.092.732l-.36-.78c.32-.32.728-.576 1.224-.768.496-.2 1.02-.3 1.572-.3.856 0 1.516.2 1.98.6.464.392.696.952.696 1.68 0 .536-.132 1.048-.396 1.536-.256.48-.632.976-1.128 1.488l-2.652 2.688v-.276h4.536V31h-5.532Z"/><path fill="#000" d="M248.717 31.13a7.269 7.269 0 0 1-2.041-.273 5.217 5.217 0 0 1-1.586-.78l.52-1.313c.295.208.603.386.923.533.321.139.663.247 1.027.325.364.07.75.104 1.157.104.685 0 1.179-.113 1.482-.338a1.05 1.05 0 0 0 .455-.884c0-.32-.104-.563-.312-.728-.208-.173-.58-.316-1.118-.429l-1.469-.299c-.84-.173-1.469-.464-1.885-.871-.416-.407-.624-.953-.624-1.638 0-.572.152-1.07.455-1.495.304-.425.728-.754 1.274-.988.546-.234 1.183-.351 1.911-.351.65 0 1.253.095 1.807.286.555.182 1.019.446 1.391.793l-.52 1.248a3.722 3.722 0 0 0-1.222-.689 4.431 4.431 0 0 0-1.482-.234c-.615 0-1.096.121-1.443.364a1.12 1.12 0 0 0-.507.975c0 .32.104.576.312.767.217.19.581.338 1.092.442l1.456.286c.867.173 1.508.46 1.924.858.416.39.624.919.624 1.586a2.43 2.43 0 0 1-.442 1.443c-.294.407-.71.728-1.248.962-.537.225-1.174.338-1.911.338Zm7.149-.13v-7.787h-3.029v-1.378h7.735v1.378h-3.029V31h-1.677Zm5.891 0v-9.165h6.175v1.313h-4.563v2.535h4.264v1.326h-4.264v2.665h4.563V31h-6.175Zm7.731 0v-9.165h4.069c1.005 0 1.772.243 2.301.728.529.485.793 1.153.793 2.002 0 .84-.264 1.508-.793 2.002-.529.494-1.296.741-2.301.741h-2.392V31h-1.677Zm1.677-5.018h2.197c.555 0 .971-.121 1.248-.364.277-.251.416-.602.416-1.053 0-.45-.139-.797-.416-1.04-.277-.251-.693-.377-1.248-.377h-2.197v2.834ZM285.328 31v-1.794h-4.095v-1.17l4.355-6.201h1.352v6.097h1.313v1.274h-1.313V31h-1.612Zm0-3.068v-4.121h.312l-3.159 4.511v-.39h2.847Z"/><path fill="#DEDEDE" d="M168.447 31.108c-.68 0-1.288-.088-1.824-.264a4.31 4.31 0 0 1-1.404-.756l.36-.792c.28.208.56.384.84.528.288.136.596.24.924.312a5.79 5.79 0 0 0 1.104.096c.712 0 1.24-.132 1.584-.396.344-.264.516-.616.516-1.056 0-.376-.12-.664-.36-.864-.24-.2-.66-.36-1.26-.48l-1.26-.252c-.776-.16-1.356-.42-1.74-.78-.376-.36-.564-.848-.564-1.464 0-.504.128-.944.384-1.32.264-.376.632-.668 1.104-.876.472-.208 1.02-.312 1.644-.312.6 0 1.148.092 1.644.276.496.176.92.436 1.272.78l-.348.768a3.509 3.509 0 0 0-1.188-.72 3.969 3.969 0 0 0-1.392-.228c-.656 0-1.176.144-1.56.432-.376.28-.564.664-.564 1.152 0 .392.12.7.36.924.24.216.636.38 1.188.492l1.272.252c.816.168 1.416.42 1.8.756.384.336.576.808.576 1.416 0 .464-.128.876-.384 1.236-.248.36-.604.64-1.068.84-.464.2-1.016.3-1.656.3ZM175.04 31v-7.62h-2.988v-.84h6.96v.84h-2.976V31h-.996Zm5.19 0v-8.46h5.4v.816h-4.428v2.94h4.164v.828h-4.164v3.048h4.428V31h-5.4Zm7.055 0v-8.46h3.444c.888 0 1.572.216 2.052.648.48.424.72 1.016.72 1.776 0 .744-.24 1.336-.72 1.776-.48.432-1.164.648-2.052.648h-2.448V31h-.996Zm.996-4.44h2.352c.616 0 1.08-.14 1.392-.42.32-.28.48-.672.48-1.176 0-.512-.16-.908-.48-1.188-.312-.28-.776-.42-1.392-.42h-2.352v3.204Zm12.445 4.548a5.056 5.056 0 0 1-1.632-.264 3.564 3.564 0 0 1-1.308-.756l.372-.768c.392.32.796.552 1.212.696.416.144.864.216 1.344.216.632 0 1.112-.132 1.44-.396.328-.272.492-.668.492-1.188 0-.496-.168-.872-.504-1.128-.336-.264-.828-.396-1.476-.396h-1.272v-.828h1.188c.56 0 1.004-.144 1.332-.432.328-.288.492-.68.492-1.176 0-.448-.152-.788-.456-1.02-.296-.24-.724-.36-1.284-.36-.912 0-1.7.324-2.364.972l-.372-.78c.328-.336.74-.596 1.236-.78a4.284 4.284 0 0 1 1.56-.288c.832 0 1.484.192 1.956.576.472.384.708.916.708 1.596 0 .52-.148.968-.444 1.344-.296.368-.696.62-1.2.756v-.132c.6.096 1.064.336 1.392.72.328.376.492.852.492 1.428 0 .736-.26 1.32-.78 1.752-.512.424-1.22.636-2.124.636Z"/><circle cx="20.5" cy="5" r="5" fill="#008FF5"/><circle cx="102.5" cy="5" r="5" fill="#008FF5"/><circle cx="184.5" cy="5" r="5" fill="#008FF5"/><circle cx="266.5" cy="5" r="5" fill="#DEDEDE"/><circle cx="266.5" cy="5" r="5" fill="#008FF5"/><path stroke="#008FF5" stroke-linecap="round" d="M32 4.5h59M114 4.5h59M196 4.5h59"/></svg>