<svg xmlns="http://www.w3.org/2000/svg" width="301" height="34" fill="none"><g fill="#00A6CA" clip-path="url(#a)"><path d="M18.628 20.083a2.318 2.318 0 0 0-.816-.4 3.441 3.441 0 0 0-.905-.133c-.227 0-.453.044-.68.089a2.651 2.651 0 0 0-.633.222 2.128 2.128 0 0 0-.544.4c-.181.178-.272.355-.362.533 0-.311-.09-.533-.272-.71-.136-.178-.362-.312-.588-.4a2.151 2.151 0 0 0-.77-.134c-.272 0-.544.044-.86.089v1.155c.18 0 .361 0 .452.044.136.045.181.09.226.178.046.089.091.178.091.311v5.82h1.72v-4.31c0-.31.046-.577.182-.799.09-.222.226-.4.408-.533.18-.133.407-.267.634-.311.226-.044.498-.133.724-.133.453 0 .86.088 1.223.266l.77-1.244ZM26.19 25.992c-.136-.044-.181-.133-.226-.222a.825.825 0 0 1-.09-.355V20.26c-.499-.221-.997-.399-1.54-.488-.499-.133-1.042-.177-1.585-.177-.634 0-1.178.088-1.721.266a4.198 4.198 0 0 0-1.359.8c-.407.355-.679.755-.905 1.288a4.028 4.028 0 0 0-.363 1.688c0 .534.046 1.022.227 1.467.136.444.362.844.634 1.2.271.355.634.621 1.087.799.452.178.95.266 1.494.266.543 0 1.087-.133 1.585-.444.498-.266.86-.666 1.041-1.2 0 .4.046.711.181.934.136.222.272.4.498.488.227.134.453.178.725.178.272 0 .543 0 .815-.089v-1.244c-.226.045-.407.045-.498 0Zm-1.992-2.577c0 .711-.181 1.244-.544 1.689-.317.444-.815.666-1.449.666-.724 0-1.222-.222-1.585-.622-.362-.4-.498-.933-.498-1.644 0-.4.09-.755.227-1.11.135-.312.271-.622.498-.845.226-.222.452-.4.77-.533.271-.133.633-.178.996-.178.226 0 .498 0 .77.045.271.044.543.133.815.222v2.31ZM34.386 20.483c-.226-.267-.543-.489-.95-.666-.363-.178-.816-.267-1.36-.267-.27 0-.497 0-.769.044a3.442 3.442 0 0 0-.724.223 1.906 1.906 0 0 0-.634.4c-.182.177-.363.355-.453.621 0-.355-.09-.622-.227-.8a1.234 1.234 0 0 0-.543-.4 4.063 4.063 0 0 0-.77-.088c-.272 0-.589.044-.86.089v1.155c.18 0 .362 0 .453.044.135.045.18.09.226.178.045.089.09.178.09.311v5.82h1.721v-4.22c0-.311.046-.578.136-.8.09-.267.226-.444.408-.622.18-.178.362-.311.588-.4.227-.089.498-.133.77-.133.498 0 .951.177 1.268.488.362.311.498.8.498 1.378v4.354h1.72v-4.354c0-.445-.044-.889-.18-1.289.045-.444-.136-.755-.408-1.066ZM42.084 23.282c-.272-.178-.634-.267-.996-.355-.362-.09-.77-.134-1.178-.178a11.966 11.966 0 0 1-1.358-.267c-.317-.133-.453-.31-.453-.622a.74.74 0 0 1 .136-.444.834.834 0 0 1 .362-.311c.136-.089.317-.178.498-.222.181-.045.408-.089.59-.089.18 0 .407 0 .588.044.226.045.407.09.543.178.181.089.272.178.408.311.09.133.18.267.18.444H42.9c0-.355-.045-.71-.226-.977a3.364 3.364 0 0 0-.68-.71c-.317-.178-.634-.356-1.041-.445a5.832 5.832 0 0 0-2.49 0 2.73 2.73 0 0 0-1.042.444c-.317.178-.544.444-.725.711-.18.267-.271.622-.271 1.022 0 .444.136.755.317 1.022.226.266.453.444.77.577.316.134.679.222 1.086.311.408.045.77.134 1.178.178.498.044.905.178 1.222.311.317.133.453.355.453.71 0 .223-.045.4-.181.578-.136.134-.272.267-.408.356a2.273 2.273 0 0 1-.588.178c-.227.044-.408.044-.634.044-.227 0-.408-.044-.634-.044-.181-.045-.363-.134-.544-.223-.18-.088-.271-.222-.407-.355-.09-.133-.181-.311-.181-.489h-1.676c.045.445.136.844.362 1.155.227.311.453.534.816.711.317.178.679.311 1.086.4a5.728 5.728 0 0 0 2.445 0c.408-.089.77-.222 1.042-.444s.544-.444.725-.711c.18-.311.271-.666.271-1.066 0-.445-.09-.8-.271-1.067-.09-.31-.317-.488-.589-.666ZM61.284 20.483c-.226-.267-.543-.489-.95-.666-.363-.178-.816-.267-1.36-.267-.27 0-.497 0-.769.044a3.442 3.442 0 0 0-.724.223 1.905 1.905 0 0 0-.634.4c-.181.177-.363.355-.453.621 0-.355-.09-.622-.227-.8a1.234 1.234 0 0 0-.543-.4 4.064 4.064 0 0 0-.77-.088c-.271 0-.588.044-.815.089v1.155c.181 0 .362 0 .453.044.136.045.181.09.226.178.046.089.09.178.09.311v5.82h1.722v-4.22c0-.311.045-.578.136-.8.09-.267.226-.444.407-.622.181-.178.362-.311.589-.4.226-.089.498-.133.77-.133.498 0 .95.177 1.267.488.363.311.499.8.499 1.378v4.354h1.72v-4.354c0-.445-.045-.889-.18-1.289 0-.444-.182-.755-.454-1.066ZM64.318 16.44c-.272 0-.498.089-.725.267-.226.177-.317.4-.317.755s.136.577.317.755c.227.178.453.267.725.222a.93.93 0 0 0 .68-.266c.225-.178.316-.4.316-.756 0-.355-.09-.577-.317-.755-.181-.178-.407-.222-.68-.222ZM65.179 19.728h-1.721v7.464h1.72v-7.464ZM73.193 20.527c-.362-.31-.815-.533-1.313-.71-.498-.178-.996-.223-1.54-.223-.498 0-.996.09-1.449.223-.453.177-.905.4-1.268.71-.362.311-.679.711-.905 1.2a3.88 3.88 0 0 0-.362 1.688c0 .667.135 1.244.362 1.689.226.488.543.888.905 1.244.363.31.816.577 1.268.71.498.178.951.223 1.495.223.498 0 .996-.09 1.494-.223s.906-.4 1.268-.71c.362-.311.68-.711.906-1.244a4.028 4.028 0 0 0 .362-1.689c0-.666-.136-1.2-.362-1.688a2.943 2.943 0 0 0-.86-1.2Zm-.679 3.955c-.136.31-.317.533-.498.755-.181.222-.453.355-.725.444-.271.089-.543.178-.815.178-.272 0-.588-.045-.86-.133a1.98 1.98 0 0 1-.725-.445 2.325 2.325 0 0 1-.543-.755c-.136-.311-.181-.666-.181-1.066s.045-.711.18-1.022c.137-.311.273-.533.499-.711.226-.178.453-.355.725-.444.271-.09.543-.134.815-.178.271 0 .588.044.86.133.272.09.543.222.77.445.226.177.407.444.543.755.136.31.227.666.227 1.066a3.95 3.95 0 0 1-.272.978Z"/><path d="M4.861 17.95v-1.599h8.197v1.6H9.842v9.24h-1.81v-9.24h-3.17ZM44.348 23.549V16.35h1.811v7.153c0 1.422 1.087 2.222 2.49 2.222 1.404 0 2.446-.8 2.446-2.222v-7.153h1.811v7.198c0 2.399-1.947 3.776-4.256 3.776-2.355 0-4.302-1.377-4.302-3.776ZM82.975 25.415v-2.666c0-.444-.046-.889-.181-1.289-.136-.4-.317-.71-.544-1.021-.226-.267-.543-.49-.95-.667-.363-.178-.816-.266-1.36-.266-.271 0-.497 0-.77.044a3.436 3.436 0 0 0-.724.222 1.904 1.904 0 0 0-.634.4c-.18.178-.362.355-.452.622 0-.355-.091-.622-.227-.8a1.235 1.235 0 0 0-.543-.4 4.063 4.063 0 0 0-.77-.088c-.272 0-.589.044-.815.088v1.156c.181 0 .362 0 .453.044.136.044.18.089.226.178.045.089.09.177.09.31v5.821h1.721v-4.22c0-.312.046-.578.136-.8.09-.267.227-.445.408-.623.181-.177.362-.31.588-.4a2.15 2.15 0 0 1 .77-.133c.498 0 .951.178 1.268.489.362.311.498.8.498 1.377v2.71c0 1.822 1.132 2 2.627 1.733V26.17c-.68.044-.815-.178-.815-.755ZM87.457 4.178c-2.943 0-5.524 1.555-6.883 3.91-.498.932-.588 1.732-.18 2.399.452.8 1.494.888 2.037.888h.996l-.362 1.11c-.227.667-.136 1.423.226 1.911.363.489.906.756 1.585.756a3.93 3.93 0 0 0 1.404-.267 2.381 2.381 0 0 1-.317-.578c-.045-.177-.136-.355-.136-.577-.272.133-.588.178-.906.178-.18 0-.452-.045-.588-.267-.136-.178-.181-.444-.09-.755l.497-1.51h1.585l.408-1.29h-1.54L85.873 8h-1.359l-.68 2.088h-1.448c-.453 0-.725-.134-.86-.356-.137-.266 0-.8.362-1.421v-.045c1.222-1.733 3.215-2.888 5.524-2.888 3.668 0 6.657 2.933 6.657 6.531 0 3.599-2.989 6.531-6.657 6.531-3.26 0-5.977-2.31-6.566-5.331l-1.268.266c.725 3.6 3.94 6.354 7.834 6.354 4.392 0 7.97-3.51 7.97-7.82.045-4.22-3.532-7.73-7.925-7.73Z"/><path d="M92.53 14.13c-.318 0-.725-.045-.997-.222-.09-.09-.227-.178-.272-.4 0-.09 0-.222.045-.356l.997-2.976h-1.359l-.86 2.576c-.227.667-.951 1.2-1.585 1.2-.181 0-.408-.044-.498-.222-.09-.133-.181-.311-.046-.622l.997-2.977h-1.359l-.86 2.577c-.227.622-.136 1.288.226 1.777.362.444.86.711 1.54.711.634 0 1.313-.267 1.857-.71.18.266.407.443.724.577.453.133.725.133 1.041.133.136 0 .318-.044.363-.044.045-.045.045-.09.09-.134l.136-.266.136-.267.136-.266c.045-.045.045-.134.09-.178-.135.089-.317.089-.543.089ZM84.74 26.303c0-1.333 2.038-1.333 2.038 0s-2.038 1.333-2.038 0Zm1.857 0c0-1.155-1.676-1.155-1.676 0s1.676 1.155 1.676 0Zm-.408.444-.18.045-.272-.356h-.227v.356h-.136v-.978h.408c.18 0 .362.134.362.311 0 .134-.09.267-.226.267l.271.355Zm-.634-.444h.227c.136 0 .226-.089.226-.178 0-.133-.09-.177-.226-.177h-.227v.355Z"/></g><g fill="#9F1C34" clip-path="url(#b)"><path d="M204.729 15.056A1.278 1.278 0 0 1 206 16.363a1.282 1.282 0 0 1-2.562 0 1.275 1.275 0 0 1 .788-1.206c.157-.067.325-.101.496-.101h.007Zm0 .202a1.067 1.067 0 0 0-1.036 1.095 1.039 1.039 0 1 0 2.078 0 1.054 1.054 0 0 0-.289-.766 1.065 1.065 0 0 0-.747-.335l-.006.006Zm-.242 1.85h-.252V15.66c.135-.022.272-.033.409-.033a.76.76 0 0 1 .447.108c.046.035.082.081.105.134.024.052.034.11.029.167a.357.357 0 0 1-.281.353c.128.023.213.137.242.35.012.122.043.242.092.356h-.242a1.056 1.056 0 0 1-.098-.37.277.277 0 0 0-.098-.197.27.27 0 0 0-.213-.057h-.16l.02.637Zm0-.8h.166c.19 0 .353-.07.353-.25 0-.127-.091-.254-.353-.254a1.15 1.15 0 0 0-.166 0v.503ZM116 26.735 118.873 14h11.359l-.529 2.569h-6.249l-.47 2.15h5.451l-.559 2.54h-5.461l-.601 2.774h6.425l-.566 2.702H116ZM129.791 19.268c1.163-4.503 4.268-4.464 7.954-4.386 2.526.053 6.441.079 5.745 4.036 0 0-.157 1.125-.412 2.344h-3.977l7.991 9.565h-5.304l-3.461-4.147a10.076 10.076 0 0 1-3.415.392c-2.095-.078-5.977 0-5.82-3.65.108-1.402.342-2.79.699-4.15m4.902-.622a23.748 23.748 0 0 0-1.101 4.304c-.272 1.513.813 2.056 1.862 2.056.856 0 2.066-.507 2.445-1.553a24.637 24.637 0 0 0 1.088-4.346c.386-2.405-1.863-2.055-1.863-2.055-1.8-.121-2.444 1.591-2.444 1.591"/><path d="M145.579 15.425h4.634s-1.484 6.536-1.804 8.13a1.387 1.387 0 0 0 .453.976 1.398 1.398 0 0 0 1.011.368s1.853.287 2.229-1.236l1.853-8.238h4.705s-1.781 8.15-2.091 9.15c-.31 1-1.863 2.37-5.395 2.562a17.272 17.272 0 0 1-2.873-.157l-4.229-4.996s1.134-5.23 1.507-6.56ZM160.409 15.425h4.735l-2.556 11.287h-4.627l2.448-11.287ZM169.114 26.712h-4.67l2.458-11.287h10.189l-.539 2.209h-5.366l-.51 2.078h4.576l-.481 2.167h-4.529l-1.128 4.833ZM175.513 26.712h-3.268l7.958-11.287h5.66l1.127 9.15 3.804-3.483-3.732-5.667h6l1.807 2.872 2.922-2.872h4.598l-5.967 5.229 3.892 6.058h-5.785l-1.96-3.369-3.236 3.37h-6.993l-.219-2.468h-4.938l-1.67 2.467Zm3.268-4.921h2.971l-.366-3.726-2.605 3.726Z"/></g><g clip-path="url(#c)"><path fill="#0D6EB6" d="M233.533 12.467h-2.666c-.8 0-1.4-.667-1.4-1.4V8.4c0-.8.666-1.4 1.4-1.4h2.666c.8 0 1.4.667 1.4 1.4v2.667c0 .733-.6 1.4-1.4 1.4Z"/><path fill="#72217B" d="M226.666 18.4h-3c-.866 0-1.6-.733-1.6-1.6v-3c0-.867.734-1.6 1.6-1.6h3c.867 0 1.6.733 1.6 1.6v3c0 .867-.733 1.6-1.6 1.6Z"/><path fill="#B02383" d="M226.333 24.6h-1.8c-.533 0-1-.467-1-1v-1.8c0-.533.467-1 1-1h1.8c.534 0 1 .467 1 1v1.8c0 .6-.4 1-1 1Z"/><path fill="#D72B80" d="M231.267 30.4h-2.134A1.124 1.124 0 0 1 228 29.267v-2.134c0-.666.533-1.133 1.133-1.133h2.134c.666 0 1.133.533 1.133 1.133v2.134c0 .6-.467 1.133-1.133 1.133ZM239.133 13.533h-1.467a.77.77 0 0 1-.8-.8v-1.466c0-.467.334-.8.8-.8h1.467c.467 0 .8.333.8.8v1.466c0 .467-.333.8-.8.8Z"/><path fill="#00458F" d="M271.867 14.533c.466 0 .866-.4.866-.866 0-.467-.4-.867-.866-.867-.467 0-.867.4-.867.867 0 .466.4.866.867.866ZM240.4 23.733c-.134.2-.334.267-.6.267-.134 0-.267 0-.4-.067a.7.7 0 0 1-.334-.6c0-.133.067-.2.067-.333l2-3.133-2-3.134c-.067-.066-.067-.2-.067-.333 0-.2.134-.467.334-.6.133-.067.2-.067.333-.067.2 0 .467.067.6.267l1.6 2.6L243.6 16c.133-.2.333-.267.6-.267.133 0 .266 0 .333.067a.7.7 0 0 1 .333.6c0 .133 0 .267-.066.333l-2 3.134 2 3.133c.066.067.066.2.066.333a.7.7 0 0 1-.333.6c-.133.067-.267.067-.4.067-.2 0-.467-.067-.6-.267l-1.667-2.533-1.466 2.533ZM247.533 16.6c.733-.667 1.733-1.067 2.866-1.067 2.4 0 4.334 1.934 4.334 4.334 0 2.333-1.934 4.266-4.334 4.266-1.066 0-2.133-.4-2.866-1.066v3.666c0 .334-.334.667-.734.667-.333 0-.666-.333-.666-.667V16.267c0-.334.333-.667.666-.667.4 0 .734.333.734.667v.333Zm2.866.333a2.845 2.845 0 0 0-2.866 2.867c0 1.6 1.266 2.867 2.866 2.867s2.867-1.267 2.867-2.867-1.267-2.867-2.867-2.867ZM266.933 19.067V23.4c0 .333-.333.667-.666.667-.4 0-.734-.334-.734-.667v-7.133c0-.334.334-.667.734-.667.333 0 .666.267.666.667.6-.467 1.334-.667 2.134-.734.466 0 .8.334.8.667 0 .4-.334.733-.8.733-1.134.067-2.134.467-2.134 2.134ZM271.866 15.6c-.4 0-.733.333-.733.667v7.066c0 .334.333.667.733.667.333 0 .667-.333.667-.667v-7.066c.066-.334-.334-.667-.667-.667ZM280.933 16.267c0-.334.334-.667.734-.667.333 0 .666.333.666.667v7.066c0 .334-.333.667-.666.667-.4 0-.734-.333-.734-.667V23c-.733.667-1.733 1.067-2.866 1.067a4.325 4.325 0 0 1-4.334-4.334c0-2.333 1.934-4.266 4.334-4.266 1.066 0 2.066.4 2.866 1.066v-.266Zm-2.866 6.4c1.6 0 2.866-1.267 2.866-2.867s-1.266-2.867-2.866-2.867A2.846 2.846 0 0 0 275.2 19.8c-.067 1.6 1.2 2.867 2.867 2.867ZM289.533 19.133c0-1.2-1-2.2-2.2-2.2-1.133 0-2.2.467-2.2 2.134V23.4c0 .333-.333.667-.666.667-.4 0-.734-.334-.734-.667v-7.133c0-.334.334-.667.734-.667.333 0 .666.267.666.667.6-.467 1.334-.734 2.2-.734 1.934 0 3.667 1.534 3.667 3.4v4.4c0 .334-.333.667-.667.667-.4 0-.733-.333-.733-.667v-4.2h-.067ZM238.733 19.6c0-2.2-2-4.067-4.267-4.067-2.4 0-4.333 1.934-4.333 4.267 0 2.4 1.933 4.333 4.333 4.333 1.133 0 2.2-.466 3-1.2.133-.133.267-.333.267-.533a.74.74 0 0 0-.734-.733c-.2 0-.4.133-.533.266-.467.534-1.2.734-1.933.734-1.4 0-2.6-1-2.867-2.334h6.533c.267-.066.534-.4.534-.733Zm-4.267-2.667c1.267 0 2.333.8 2.733 2h-5.466c.333-1.133 1.4-2 2.733-2ZM264.266 19.6c-.067-2.2-2-4.067-4.267-4.067-2.4 0-4.333 1.934-4.333 4.267 0 2.4 1.933 4.333 4.333 4.333 1.134 0 2.2-.466 3-1.2.134-.133.267-.333.267-.533a.74.74 0 0 0-.733-.733c-.2 0-.4.133-.534.266-.466.534-1.2.734-1.933.734-1.4 0-2.6-1-2.867-2.334H263.666c.333-.066.6-.4.6-.733Zm-4.267-2.667c1.267 0 2.334.8 2.734 2h-5.467c.4-1.133 1.467-2 2.733-2ZM292.466 24.067c-.067 0-.133-.067-.133-.134v-1.2h-.267a.143.143 0 0 1-.133-.133c0-.067.066-.133.133-.133h.8c.067 0 .133.066.133.133a.143.143 0 0 1-.133.133h-.267v1.2c-.066.067-.066.134-.133.134ZM293.8 24.067c-.067 0-.134-.067-.134-.067l-.333-1v.933c0 .067-.067.134-.133.134-.067 0-.134-.067-.134-.134v-1.266c0-.067.067-.2.2-.2.067 0 .134.066.2.133l.334 1 .333-1c0-.067.067-.133.2-.133.067 0 .2.066.2.2v1.266c0 .067-.067.134-.133.134-.067 0-.134-.067-.134-.134V23c-.066.133-.133.4-.2.6l-.133.4s-.067.067-.133.067Z"/></g><defs><clipPath id="a"><path fill="#fff" d="M4.861 4h90.566v23.547H4.861z"/></clipPath><clipPath id="b"><path fill="#fff" d="M116 14h90v16.866h-90z"/></clipPath><clipPath id="c"><path fill="#fff" d="M222 7h72.667v24H222z"/></clipPath></defs></svg>