<svg xmlns="http://www.w3.org/2000/svg" width="40" height="29" fill="none"><rect width="39" height="26.565" x=".5" y=".955" fill="#fff" stroke="#F3F3F3" rx="3.5"/><path fill="#224DBA" d="M17.76 19.36h-2.663l1.665-9.649h2.663L17.76 19.36ZM27.413 9.947a6.953 6.953 0 0 0-2.388-.41c-2.63 0-4.482 1.313-4.493 3.191-.022 1.386 1.326 2.156 2.334 2.618 1.03.472 1.38.78 1.38 1.2-.01.647-.832.945-1.6.945-1.062 0-1.632-.153-2.498-.513l-.35-.154-.373 2.166c.624.266 1.775.503 2.97.513 2.794 0 4.613-1.293 4.635-3.295.01-1.098-.701-1.94-2.236-2.627-.93-.442-1.501-.74-1.501-1.191.01-.41.482-.831 1.534-.831a4.786 4.786 0 0 1 1.983.369l.241.102.362-2.083Z"/><path fill="#224DBA" fill-rule="evenodd" d="M32.18 9.711h2.06l2.149 9.648h-2.466s-.241-1.108-.318-1.447h-3.419l-.559 1.447h-2.794l3.956-8.847c.274-.627.756-.8 1.392-.8Zm-.163 3.53s-.844 2.146-1.064 2.7h2.214c-.11-.482-.614-2.792-.614-2.792l-.186-.83c-.078.213-.192.508-.268.706-.052.135-.087.225-.082.217ZM10.264 16.29l2.608-6.579h2.816l-4.186 9.638H8.686l-2.374-8.383a11.283 11.283 0 0 0-2.798-1.06l.044-.195h4.284c.58.02 1.052.195 1.206.811l.93 4.433v.001l.286 1.334Z" clip-rule="evenodd"/></svg>